<mxfile host="app.diagrams.net" modified="2020-11-16T15:04:16.774Z" agent="5.0 (X11; Linux x86_64) AppleWebKit/537.36 (KHTML, like Gecko) Chrome/85.0.4183.83 Safari/537.36" etag="CcqLmZZc20bgjd5306Ck" version="13.9.7" type="github">
  <diagram name="Page-1" id="9f46799a-70d6-7492-0946-bef42562c5a5">
    <mxGraphModel dx="1361" dy="725" grid="1" gridSize="10" guides="1" tooltips="1" connect="1" arrows="1" fold="1" page="1" pageScale="1" pageWidth="1100" pageHeight="850" background="#ffffff" math="0" shadow="0">
      <root>
        <mxCell id="0" />
        <mxCell id="1" parent="0" />
        <mxCell id="wAJgxxfG1Gylnoa3M8R5-1" value="" style="rounded=1;whiteSpace=wrap;html=1;strokeColor=#262626;" vertex="1" parent="1">
          <mxGeometry x="120" y="310" width="940" height="370" as="geometry" />
        </mxCell>
        <mxCell id="wAJgxxfG1Gylnoa3M8R5-2" value="" style="shape=mxgraph.cisco.computers_and_peripherals.web_browser;html=1;pointerEvents=1;dashed=0;fillColor=#036897;strokeColor=#ffffff;strokeWidth=2;verticalLabelPosition=bottom;verticalAlign=top;align=center;outlineConnect=0;" vertex="1" parent="1">
          <mxGeometry x="30" y="580" width="62" height="64" as="geometry" />
        </mxCell>
        <mxCell id="wAJgxxfG1Gylnoa3M8R5-3" value="" style="verticalLabelPosition=bottom;verticalAlign=top;html=1;shadow=0;dashed=0;strokeWidth=1;shape=mxgraph.android.phone2;strokeColor=#c0c0c0;fillColor=#8A8A8A;" vertex="1" parent="1">
          <mxGeometry x="30" y="355" width="38" height="70" as="geometry" />
        </mxCell>
        <mxCell id="wAJgxxfG1Gylnoa3M8R5-4" value="&lt;font style=&quot;font-size: 11px&quot;&gt;Cloud Hosting&lt;/font&gt;" style="rounded=0;whiteSpace=wrap;html=1;strokeColor=#262626;" vertex="1" parent="1">
          <mxGeometry x="130" y="520" width="80" height="40" as="geometry" />
        </mxCell>
        <mxCell id="wAJgxxfG1Gylnoa3M8R5-31" value="Firestore DB" style="image;html=1;image=img/lib/clip_art/computers/Database_128x128.png;strokeColor=#6B6B6B;fillColor=#6B6B6B;" vertex="1" parent="1">
          <mxGeometry x="928" y="410" width="80" height="80" as="geometry" />
        </mxCell>
        <mxCell id="wAJgxxfG1Gylnoa3M8R5-32" value="MySQL" style="strokeWidth=1;html=1;shape=mxgraph.flowchart.database;whiteSpace=wrap;fillColor=#9C9C9C;" vertex="1" parent="1">
          <mxGeometry x="938" y="540" width="60" height="80" as="geometry" />
        </mxCell>
        <mxCell id="wAJgxxfG1Gylnoa3M8R5-38" value="" style="rounded=0;whiteSpace=wrap;html=1;strokeColor=#6B6B6B;strokeWidth=1;fillColor=#FFFFFF;" vertex="1" parent="1">
          <mxGeometry x="240" y="450" width="100" height="199" as="geometry" />
        </mxCell>
        <mxCell id="wAJgxxfG1Gylnoa3M8R5-40" value="" style="group" vertex="1" connectable="0" parent="1">
          <mxGeometry x="446" y="320" width="441" height="332" as="geometry" />
        </mxCell>
        <mxCell id="wAJgxxfG1Gylnoa3M8R5-36" value="" style="group" vertex="1" connectable="0" parent="wAJgxxfG1Gylnoa3M8R5-40">
          <mxGeometry y="22" width="430" height="310" as="geometry" />
        </mxCell>
        <mxCell id="wAJgxxfG1Gylnoa3M8R5-5" value="" style="rounded=0;whiteSpace=wrap;html=1;strokeColor=#666666;fillColor=#f5f5f5;fontColor=#333333;" vertex="1" parent="wAJgxxfG1Gylnoa3M8R5-36">
          <mxGeometry width="430" height="310" as="geometry" />
        </mxCell>
        <mxCell id="wAJgxxfG1Gylnoa3M8R5-6" value="&lt;font style=&quot;font-size: 11px&quot;&gt;Security Authentication &amp;amp; Authorization&lt;/font&gt;" style="rounded=0;whiteSpace=wrap;html=1;strokeColor=#6c8ebf;fillColor=#dae8fc;" vertex="1" parent="wAJgxxfG1Gylnoa3M8R5-36">
          <mxGeometry x="263" y="262" width="80" height="40" as="geometry" />
        </mxCell>
        <mxCell id="wAJgxxfG1Gylnoa3M8R5-7" value="&lt;font style=&quot;font-size: 11px&quot;&gt;Subscription&lt;/font&gt;" style="rounded=0;whiteSpace=wrap;html=1;strokeColor=#262626;fillColor=#6B6B6B;" vertex="1" parent="wAJgxxfG1Gylnoa3M8R5-36">
          <mxGeometry x="120" y="22" width="80" height="40" as="geometry" />
        </mxCell>
        <mxCell id="wAJgxxfG1Gylnoa3M8R5-8" value="&lt;font style=&quot;font-size: 11px&quot;&gt;Skills&lt;/font&gt;" style="rounded=0;whiteSpace=wrap;html=1;strokeColor=#262626;fillColor=#6B6B6B;" vertex="1" parent="wAJgxxfG1Gylnoa3M8R5-36">
          <mxGeometry x="120" y="142" width="80" height="40" as="geometry" />
        </mxCell>
        <mxCell id="wAJgxxfG1Gylnoa3M8R5-9" value="&lt;font style=&quot;font-size: 11px&quot;&gt;Driver Verification&lt;/font&gt;" style="rounded=0;whiteSpace=wrap;html=1;strokeColor=#262626;fillColor=#6B6B6B;" vertex="1" parent="wAJgxxfG1Gylnoa3M8R5-36">
          <mxGeometry x="340" y="142" width="80" height="40" as="geometry" />
        </mxCell>
        <mxCell id="wAJgxxfG1Gylnoa3M8R5-10" value="&lt;font style=&quot;font-size: 11px&quot;&gt;Ratings&lt;/font&gt;" style="rounded=0;whiteSpace=wrap;html=1;strokeColor=#6B6B6B;fillColor=#6B6B6B;" vertex="1" parent="wAJgxxfG1Gylnoa3M8R5-36">
          <mxGeometry x="230" y="142" width="80" height="40" as="geometry" />
        </mxCell>
        <mxCell id="wAJgxxfG1Gylnoa3M8R5-12" value="&lt;font style=&quot;font-size: 11px&quot;&gt;Alerts &amp;amp; Notifications&lt;/font&gt;" style="rounded=0;whiteSpace=wrap;html=1;strokeColor=#6c8ebf;fillColor=#dae8fc;" vertex="1" parent="wAJgxxfG1Gylnoa3M8R5-36">
          <mxGeometry x="10" y="262" width="80" height="40" as="geometry" />
        </mxCell>
        <mxCell id="wAJgxxfG1Gylnoa3M8R5-13" value="&lt;font style=&quot;font-size: 11px&quot;&gt;Physical Assets&lt;/font&gt;" style="rounded=0;whiteSpace=wrap;html=1;strokeColor=#262626;fillColor=#6B6B6B;" vertex="1" parent="wAJgxxfG1Gylnoa3M8R5-36">
          <mxGeometry x="120" y="82" width="80" height="40" as="geometry" />
        </mxCell>
        <mxCell id="wAJgxxfG1Gylnoa3M8R5-14" value="&lt;font style=&quot;font-size: 11px&quot;&gt;Contracts&lt;/font&gt;" style="rounded=0;whiteSpace=wrap;html=1;strokeColor=#6B6B6B;fillColor=#6B6B6B;" vertex="1" parent="wAJgxxfG1Gylnoa3M8R5-36">
          <mxGeometry x="230" y="82" width="80" height="40" as="geometry" />
        </mxCell>
        <mxCell id="wAJgxxfG1Gylnoa3M8R5-16" value="&lt;font style=&quot;font-size: 11px&quot;&gt;Jobs &amp;amp; Manpower&lt;/font&gt;" style="rounded=0;whiteSpace=wrap;html=1;strokeColor=#262626;fillColor=#6B6B6B;" vertex="1" parent="wAJgxxfG1Gylnoa3M8R5-36">
          <mxGeometry x="340" y="22" width="80" height="40" as="geometry" />
        </mxCell>
        <mxCell id="wAJgxxfG1Gylnoa3M8R5-17" value="&lt;font style=&quot;font-size: 11px&quot;&gt;Legal Records&lt;/font&gt;" style="rounded=0;whiteSpace=wrap;html=1;strokeColor=#262626;fillColor=#6B6B6B;" vertex="1" parent="wAJgxxfG1Gylnoa3M8R5-36">
          <mxGeometry x="230" y="22" width="80" height="40" as="geometry" />
        </mxCell>
        <mxCell id="wAJgxxfG1Gylnoa3M8R5-18" value="&lt;font style=&quot;font-size: 11px&quot;&gt;Truck Order&lt;/font&gt;" style="rounded=0;whiteSpace=wrap;html=1;strokeColor=#6B6B6B;fillColor=#6B6B6B;" vertex="1" parent="wAJgxxfG1Gylnoa3M8R5-36">
          <mxGeometry x="340" y="83" width="80" height="40" as="geometry" />
        </mxCell>
        <mxCell id="wAJgxxfG1Gylnoa3M8R5-19" value="&lt;font style=&quot;font-size: 11px&quot;&gt;Expenses&lt;/font&gt;&lt;span style=&quot;color: rgba(0 , 0 , 0 , 0) ; font-family: monospace ; font-size: 0px&quot;&gt;%3CmxGraphModel%3E%3Croot%3E%3CmxCell%20id%3D%220%22%2F%3E%3CmxCell%20id%3D%221%22%20parent%3D%220%22%2F%3E%3CmxCell%20id%3D%222%22%20value%3D%22%26lt%3Bfont%20style%3D%26quot%3Bfont-size%3A%2011px%26quot%3B%26gt%3BSubscription%26lt%3B%2Ffont%26gt%3B%22%20style%3D%22rounded%3D0%3BwhiteSpace%3Dwrap%3Bhtml%3D1%3BstrokeColor%3D%23262626%3B%22%20vertex%3D%221%22%20parent%3D%221%22%3E%3CmxGeometry%20x%3D%2210%22%20y%3D%22140%22%20width%3D%2280%22%20height%3D%2240%22%20as%3D%22geometry%22%2F%3E%3C%2FmxCell%3E%3C%2Froot%3E%3C%2FmxGraphModel%3E&lt;/span&gt;" style="rounded=0;whiteSpace=wrap;html=1;strokeColor=#262626;fillColor=#6B6B6B;" vertex="1" parent="wAJgxxfG1Gylnoa3M8R5-36">
          <mxGeometry x="340" y="202" width="80" height="40" as="geometry" />
        </mxCell>
        <mxCell id="wAJgxxfG1Gylnoa3M8R5-20" value="&lt;font style=&quot;font-size: 11px&quot;&gt;Billing&lt;/font&gt;" style="rounded=0;whiteSpace=wrap;html=1;strokeColor=#262626;fillColor=#6B6B6B;" vertex="1" parent="wAJgxxfG1Gylnoa3M8R5-36">
          <mxGeometry x="120" y="202" width="80" height="40" as="geometry" />
        </mxCell>
        <mxCell id="wAJgxxfG1Gylnoa3M8R5-21" value="&lt;font style=&quot;font-size: 11px&quot;&gt;Pricing&lt;/font&gt;" style="rounded=0;whiteSpace=wrap;html=1;strokeColor=#6B6B6B;fillColor=#6B6B6B;" vertex="1" parent="wAJgxxfG1Gylnoa3M8R5-36">
          <mxGeometry x="10" y="202" width="80" height="40" as="geometry" />
        </mxCell>
        <mxCell id="wAJgxxfG1Gylnoa3M8R5-22" value="&lt;font style=&quot;font-size: 11px&quot;&gt;Invoices&lt;/font&gt;" style="rounded=0;whiteSpace=wrap;html=1;strokeColor=#262626;fillColor=#6B6B6B;" vertex="1" parent="wAJgxxfG1Gylnoa3M8R5-36">
          <mxGeometry x="230" y="202" width="80" height="40" as="geometry" />
        </mxCell>
        <mxCell id="wAJgxxfG1Gylnoa3M8R5-23" value="&lt;span style=&quot;font-size: 11px&quot;&gt;Truck Owners&lt;/span&gt;" style="rounded=0;whiteSpace=wrap;html=1;strokeColor=#6B6B6B;fillColor=#6B6B6B;" vertex="1" parent="wAJgxxfG1Gylnoa3M8R5-36">
          <mxGeometry x="10" y="82" width="80" height="40" as="geometry" />
        </mxCell>
        <mxCell id="wAJgxxfG1Gylnoa3M8R5-24" value="&lt;span style=&quot;font-size: 11px&quot;&gt;Customers&lt;/span&gt;" style="rounded=0;whiteSpace=wrap;html=1;strokeColor=#262626;fillColor=#6B6B6B;" vertex="1" parent="wAJgxxfG1Gylnoa3M8R5-36">
          <mxGeometry x="10" y="142" width="80" height="40" as="geometry" />
        </mxCell>
        <mxCell id="wAJgxxfG1Gylnoa3M8R5-25" value="&lt;span style=&quot;font-size: 11px&quot;&gt;Geography &amp;amp; Locations&lt;/span&gt;" style="rounded=0;whiteSpace=wrap;html=1;strokeColor=#6c8ebf;fillColor=#dae8fc;" vertex="1" parent="wAJgxxfG1Gylnoa3M8R5-36">
          <mxGeometry x="179" y="262" width="80" height="40" as="geometry" />
        </mxCell>
        <mxCell id="wAJgxxfG1Gylnoa3M8R5-26" value="&lt;span style=&quot;font-size: 11px&quot;&gt;Documents&lt;/span&gt;" style="rounded=0;whiteSpace=wrap;html=1;strokeColor=#6c8ebf;fillColor=#dae8fc;" vertex="1" parent="wAJgxxfG1Gylnoa3M8R5-36">
          <mxGeometry x="350" y="262" width="70" height="40" as="geometry" />
        </mxCell>
        <mxCell id="wAJgxxfG1Gylnoa3M8R5-27" value="&lt;span style=&quot;font-size: 11px&quot;&gt;Correspondence&lt;/span&gt;" style="rounded=0;whiteSpace=wrap;html=1;strokeColor=#6c8ebf;fillColor=#dae8fc;" vertex="1" parent="wAJgxxfG1Gylnoa3M8R5-36">
          <mxGeometry x="94" y="262" width="80" height="40" as="geometry" />
        </mxCell>
        <mxCell id="wAJgxxfG1Gylnoa3M8R5-15" value="&lt;font style=&quot;font-size: 11px&quot;&gt;Driver&lt;/font&gt;" style="rounded=0;whiteSpace=wrap;html=1;strokeColor=#262626;fillColor=#6B6B6B;" vertex="1" parent="wAJgxxfG1Gylnoa3M8R5-36">
          <mxGeometry x="14" y="22" width="80" height="40" as="geometry" />
        </mxCell>
        <mxCell id="wAJgxxfG1Gylnoa3M8R5-37" value="" style="shape=image;verticalLabelPosition=bottom;labelBackgroundColor=#ffffff;verticalAlign=top;aspect=fixed;imageAspect=0;image=data:image/png,iVBORw0KGgoAAAANSUhEUgAAAZAAAAGQCAYAAACAvzbMAAAABHNCSVQICAgIfAhkiAAAIABJREFUeJzsvXmQHNd95/n9vZd1dzeAxg2QAAGCIAlQFEmQFq0LhMaWRIo6qYZsXTQlm7Rl02t5ZNkzlt1oX+OxtTM7YU/MULthj9Y7E7vda4c9okhb0g6A8UHZA0ZM2APu2qIpypR5ACAa3V1nZr7fb/94mVlZ1dVAH3U18D4RiCpUVb96mVX1vvk73u8HOBwOh8PhcDgcDofD4XA4HA6Hw+FwOBwOh8PhcDgcDofD4XA4HA6Hw+FwOBwOh8PhcDgcDofD4XA4HA6Hw+FwOBwOh8PhcDgcDofDcbVDg56Ao/uIgPD0/dlXjNYAsFMbg/uf9okgg56bw+FwOIaQ6ekJLScfzi/1vDz1eE6mJ3Q/5+RwOK5enAVylSBPHMnQY88GAHBu+uhILj92KyG3HVrDk/K5wsWXztIn/7oCAHJ2IkuHZ/zBztjhcKx3nIBcBcj0hKbjM+al/+1d4zsPbn5bvSFvIdBHi2Ol3SBCda78MoD/kyn8U1x8+c9Hj//Z+fhvBj13h8OxfnECss4RmVSYmaJZPLi7tGN8Mrup9CnMllGvB8IidYgAUNnihpyGl0Fttvx7XrX2m9kP/NHfCEAEFxdxOByrwwnIOkYEigh86Wvv3ZfPb/q9XCHzluq52UuKa6Wg1sh4SgABGARksw3yCqYwMlqsN8KLjfOv3rXxo//lH2ZmJtRxZ4k4HI5V4ARknWIzrR7PAhdztQz/VmE8/8nKd16ez6lgzA+j16Q+XkWACEN0JqTiOBHkG/Ov/b8P7fjkX1dkEoqmwAM6FIfDsU5Rg56AY3W88uSDBXrgtxoLWh4t5OmTlW//Q81DONYISUQAFgAiyT+2BgsQhh7Pn9P5rPeu3MabPySTUDjh3FgOh2PlOAFZp+ysvRDK5KTS8PdANZgkZCESYSYhsrYHUfQPAAtFdosQESqz50w2p5+o3fOenUQQOXnUG/AhORyOdYYTkHXI9PSEpuPP+ZW3fuew1Ct34+KcEtIZNkxEBJIoPJ4QCUmiKCLEIeVVPceU/4BMQNOx06E4l6bD4VgBTkDWIRMjZWstyMJtJHJrpW4EoIzEQkFX1AEClKrNzjE8/dvzn57YBwCYnsj0duYOh+NqwgnIOuSVl85pAJBa7WBxRG8goGa9VssNZRBEBAJBQRrwjPyAPHV/jo7P+M4KcTgcy8UJyDpkZ2HcLvLijyGjAMAoRWL3fLQiSzwmIiCldW1hvlEcyfzibGnkIABg+pCzQhwOx7JwArIe2fLtEADISAnGQEAEEWo3HkQElHJnxcIhIjZOIkIiotGoZPR8+OmL0xMb6Phzvky674XD4bgybqFYj/zl88HZ6cmsCG2UwBBIlLQFzmPxiC2QFvFI4iQiSmtdmZurjo3nH82PZ60VcviQy8hyOBxXxAnIOkMAoinw7vG/uQ5EOyhkAUgDNksXWFo8ADQtEiIwC4kIiVBWKuUC1yuPV746sQMTzwV204jD4XAsjVsk1hsnoQHAawQ3kqLdgc8EQMcWSLt4AFgsHvbB+HWitPaqs3OV0pbSh7mobiGCYMZZIQ6H4/I4AVlnvPjiXg8AgtA/5EH2+CGHALTgyuLRElCP3FjCYlWEVC68NFdAxf/8pSc/uh84bGTSbS50OBxL4wRknXHDli0KADyh/bkNuayAGoqIliMe1L4/JHqMRaC19uqX5qvFTbl3Zot0Gx2fMdhVdim9DodjSZyArFO0mCKUiCJhpSA2JL4C8bBPQiIrREQEWmeDuXkVlCuff/0PP3YIB0fkzBNHXFqvw+HoiBOQ9caZZ0MAEDZFCQwJSDELpXd7LEs8Iih6PmQhrZTnz5XrY+O5t4yO8d107HR4pKcH43A41jNOQNYbUwhe/9bjYyxqM4UMAJH9YVmJeEQvhET1s0REyNOZoLzgN2q1nyqf/tgbsGk/iytx4nA4OuAEZB0RdxDU/9+3DyhFW8SIEJGK9aPdhXVF8Yhot0JqFxd4ZDx7J1fr76LjMwazL/TicBwOxzrHCch64okjHgAQhwdDw3saDUPM8NL7PGKWKx7RixMrhIVFZz3PXFqoFjU+WvmTjx6hx54NxMVCHA5HG05A1hMHRzQAaI035oveZmZpKAXF3LrPY0XiERFbIcxCSimvMltWesy7U9h/SASE67e574rD4WjBLQrrib8rKwCgUK7PFjMEgk+0OObRqYDiFYkzsoTAbK2Q8PXZWiaL9yyc/Nib6YGnG3LGWSEOh6OJE5B1xDcrr8W1STwxhkRAzELt4rEaCwSIrRBYK4SUV5uvIVtUt6PW+MS3f/doHsF+t7HQ4XAkOAFZR9z7zHd9OTnpCfMYhQYCKJJW0ViteER/HIkQgVlEZzKZ8NzFRj7Px7bdcP199L0zNXniUWeFOBwOAE5A1hU0A1Pnb+0GZCMMC2AzsNYkGm1IYoUwEZFXrfkmU9QHTa3x8LnpiRHsghMQh8MBwAnIuiHu0WEW5m4SYGvgCwFRGfcuQpEVYkucsGjt5fxXXg+y2n9bcTz7Hnrvl6ouFuJwOAAnIOuHXUc0AEDJGzRohx8aBkinNxF2CxGxAXUDUop0ww+CXFHvRlj/2OtP3T+GV3Y6AXE4HE5A1gvf3ZTxAEAxv6FQ9EZE0CCClmX3QV8+FO0JAQEsLMrL5KuvzhrN/tsLuQ2foPc+WZUzLhbicFzrOAFZZzDLOHIkIDKKINQDAQGQlHtnE+kJm3q+qDeY0LxfvvaJ0ot/87e6N2/scDjWC05A1gnXnf2mAQCwySFgAqCEhdDFAPoiooC6MULQurDw2iUmv/6Oqg5/Zt8jp+syPZHt3Zs7HI5hxwnIemEKgZz9zAiERxBa5RAi9CIGkhBtLgQEZHebNEpFKATBO7598mgeW89x797c4XAMO05A1gFxEcXK37+0X4g2csgEgoIA6HHLJwJAoNgKyVcuLoQU1N+2pbHrN+jY6VDOOivE4bhWcQKyHpiMZcI/DJEtvhGISP8+O6JIq4iEJSxkBUoab35p+l3jODQT9G0eDodjqHACsh6IU3jZu11A28NQDADdo/B5R0gEgAiUylfnq42c+Hds2jD+r4ggbl+Iw3Ft4gRkPZC9EGU8mdtHNmQIkKQPer+IK/USEbEwNELNpnZv7asP7KW7n3VWiMNxDeIEZD2w/ZAAAInJkY1oCwCiPgqIEEV+NBFSOlup1BolBPtNZtO/so9OuLReh+MawwnIeuAvnzaAwIRhTkK2cW0rIX2bgt1YaK0QAMRMBA4z4pff5D/90O04MdNPj5rD4RgCnICsA2gKYeW/fmgngFEyAgC2jW0fBcTmgQkIBIiI0ipTq9UbRTS2hirzmzQFFul1TpjD4RgmnIAMORIl6sql8FYFGjO2/aCCCNBHFxaA5u50FhIBiRAxc9aEte+pffV9b8epo86N5XBcQzgBGXamo89IBYeZsLnhMwmgxdZx7/98kt4jIqQoU280/IL4BfGKv0bHTof9n5DD4RgUTkCGnkMaACTEvYWsHhERXxGU0IBCDpEVAhYSsf8xYZBjv3qk8tUPPyhPuJReh+NawQnIsDOylwCAhPd4Wa2IKACorxlYi4gC6vaO8hp+GHpS05TxfpUecym9Dse1ghOQIee58neiPugmA3DcqUN6XsPkcqSsEABERICRDPuVQ/NPfuDjMu1Seh2OawEnIEPOobPPhfKVB4tiJI9QSECKbfPywU6sxQqB9gNjdFCHl8n+Mh2fMYOdnMPh6AdOQIYcmgJXdOFGApWERUSgKKoqMtiJRVaIIOnKLsyeNGrXl/944ifiFryDNZUcDkcvcQIy3NjFV1VuFYVRP+SoWaAMJgOrnZQVIoA2JjQSVJQS9UvYfMAF0x2OqxwnIEOMxCm8vrmLBBtDIwxAyzCIB5BsLoSASJGAFCAgCcpj5Rtv/2mRSWW3HTorxOG4GnECMszMHlEAQKLuzud0TgQBQGqgGVidSALqpESYuVHVpOiX8Id/tgkAcMIJiMNxNeINegKOZcBmm86SgMQoBTGh2MynQRO7sGJBE9soEQIov0aV7KbPy/TEP6fjMybafzhkyreYk5NHvfvuu8HDaM7gyE6bDPDsKxoLDQ28GLrNkg5HkyFYhRxLIZPwZg5PyP3q9f8+kte3lWthHaA8hiEG0i4eRAAzQBCyoX7Kj2+nYL6+L//f/+gfcBhExzHU2VkyPZGl4zP+Wl/jcFwrOAEZYgSg6n/9+A4+9/KflrLqxkqDGyTI9bIN+vImtoR4xPdJGALyCvmQdfF/LZb1Z+n4jG9lBUPXRz2O0RBByv/5HdtZbbqRMnonidoBACGb13LML3P1wgul46dfTb9+kPN2OAaNc2ENMQTIwqW5g4AUQhYhCAkB/S7l3sKVxCNp4Q4KKjU9umvjZ86FlSdkEv8Dp44q4PRQCYgI6MQJ0NQUeOHpD76VkP3J0Y2FCSgAHB2jsue6Oqv+YPaP3/+/EP3Rn9pikuvDLedw9IpBX8s6liBenOb+8N2Pq6DxK5owZoRCEXgD815dSTzSz5PdMu/lcwa54v81n/F+bNuxmbJMQNPMcLiy7CxBODGJ4OjffTyT0V9u1A04bNTFbxCLIQBQpIWyWVE6l88VMqj7/iP5d9zyvwNT9jjhRMRxbeKysIaVGfvZeITvIaJRY4RBomhQRRSXKx4AoEjsBkMov1Kj3Ej+4/mKf7sI1HMTQ1PmhPDU/dlTp46q+bvOHs9syH+5Ol9eMOXzzPOv59Eo55Rfzyq/nkWjnJO51/NcOc/V+YWF/Kbi71ae+h8fwamjCk/dnx30gTgcg8IJyLCy9WjUQZbvKuU9QMEnITWwHejLFQ/A7k63FbuESKnG+deN0t7Pl089OH74+Iw/DLWy5OyhDD3wdONNtS13ZArq31VeOhegMjvKfqhYbFayEcDE90EwvlGoXBwt/8NrgfLUv6vVx+6kB55uyFP35wZ9PA7HIHACMqycP21Xa8MZEZu2a4PnA4x9AFcWj/TrWYiIVFCvh6UN2Qeokb0jCkAPWkCIDj/nP/X4gVwY0IcKWd7A1XlAKRHhqINXFOSIGnfZ/fYMKC2ozUs+x2NA7n1y5kiGHni6MeDjcTgGghOQYeU4+OUzjxaZOSPMgBARY2BNpAB0CpgvPZ+4e6EIQCpbO3deIPjV+n/56B46PuMPsm/IS9MTeQB4ywN33Zcv8D8rv3ouUJ6XMaEhAjXrfLX9IxBMaEjpTLby2jk/p/kL1VdvfAcAyPREYVDH43AMCicgQwoBMnrutRsAZDjO2x1kykO7C2s5rrRIXJRSZGqNRmk0c08YhncCAA6ODCzwfP3xmdqrv3l7CX793RkVAsK2NVYsHkth5cV+Dgwo8sFovEu+8mCRjs/U+jR9h2NocAIyzEhwK0EKtgivqL6uuM3d5c3b9seWOY6ICLTOVV67QBQE/3LhGx87RMdOh3Km/1aInDyaB4Dc4cPfPzaa/fHKhUs15XlZEZblJVMRRFiUp7PVi3PVkZL3E5eyxXcCwEvT9zorxHFN4QRkiJGQ7hKioh8yQaCkXwH09owrYPmuqzaICIaFlFIkgV8rbcgc9Lh+FwDgyLN93RMiANGx0/Vv/+7RjdovvwfSyDCLAojYyPJ6rBCBjW1IbxgappHJ+tX7L05PbLj++Ddrrny941rCCcgQEi9CxObNnqIcgBAE1Zf6V0uJR9L/o8PzlxvO1p+HiAhpnatduBCYBv9G8PVP3A2A+5rBNH1vHgC27r7+/pHN+Y9Vzs9WvIzOCrMQEbCcLf5iRVGYxfN0tnLhUqW4qfDxwtbsu9Pv4XBcCzgBGUJOTFoBUZAbsp4iAgyivNie0kkc4scWbRRcpgUS7Yg0LESkVFgPwtJGvbMaVr6XCIK/fLovPdQFIJz9ZuOF//Te7VxbeB/59YJheCJEzJH1sZw9NraJL5jFJmkxadRrxXBh/v2v/sEHt+HsNxuufL3jWsEJyBByAtYbLybM2PZRhJ5vAFlKPIDForESS4goZYWwaM/L1S9crOVJvrDw9U+8labA8q0+WCHPTORoCrxlfOSB0njuweqFuXImm8mKxNaHYNnep7hMgIjorJerXrhULm7Kvnd0U+EBmgJj5l63L8RxTeAEZAihKfD5rz6wQ4S1MUIAU0/7oK9EPFZBbIVEcQYV1ALKltQ2acx/v0xA4//orRUik1ConwsvTk/skerCQ6pRHTEMj1lS1sfKRDG2QpiFjJCnGo0Rnpv/cO0rE3twNhfGLX0djqsZ9yUfUkZZHSAgK2K97gL0pg96j8UjHkeIoqt2Fp31svXzFyulUu6HK4998hhNgeV3H+5d7ODj92fo2Okwuznz3pHN+aPV85cqXkbnbK/E5cdzWojOi4iIl/Fy1Qvz5eJ47qiMZt5DU6fDF+876kqcOK56nIAMKaGEt4Moa6KMH0IXFvJ2+iEeERSNxVHnQr8eauWFu7i68AH52veXcMOLPWnUJJNQmLueG1956CaeL0+ooDFiQFrEWg+0UusjJhJEGwsRMiKeatRGwrm5j8x/9SMHq+e3sbNCHFc77gs+pBCru1lQMCICsOpJdmifxCM9JsFmMGVyXrZ+7vVKcaP3IT+37Z/QsdOhfOvx7scODk94dPeXgjDrfaC0Ud9TuTBb9TJejtlaH2tJjZbYNcfWCqldmKuUNmbvyRTVew8fn/Gf33z/wHbbOxz9wAnIsCL85qyntEiUgdWLiuH9Eo+YyJUVZTCpwBelEe5szC784MJT9299/lvPJynM3WB6ekJjpEzlJz9yW9iofZjCRlGElM2estbHWlKj47+XqFSAgdbUaBTDhfLx8lMTb/BGqzQMhSMdjl7hBGRIIZhtnoIQhHuymvdbPCJSrizxsl6u/srrleJG7/u8kU3vvOmBpxvdLI8+sf8FRQ883UCOjpdG1B2Vc/N1pb08R/s+urExM7ZCjGEorfOV8/P1fJHupIx6aN8jp+vAWScgjqsWJyBDyMtnHiwKszEstoJf1KGpa6RFoo/iEb8Ppa0QFqWJt4SXqh+7+JUH93y3PKu6sY9CBAoLI6r8//zg7VyrvA9+IwulQBARFpI1Wh/Nw4k6Z7EQkQi0BgI/w5Xy+ytfm7gDW7cqEfc7c1yduC/2ELJ5NrMXLBlJWtd2yYUV17OKxaLf4pFMI44dsGgvU6i+/Ho9X6K3FQujD15//Js1PDex9tjBs0c0HTvdIMOPFHJye+X1BZ+0ypvovamLGW2pzZIgpfLV1xf8fJ7uANQP0bHTdTx7xFkhjqsSJyBDiAlrt4CgJWrJZB9d5eKeLoCY3lE+IPGwb9mMHRBBWJFoMiNBvTYx99RHbsRZ6LVkME1PQ+OFB6n89A/ebmqVd5KEorXmKIuYZLWZV0sfUIsVoj2PIQGbWuX7Kl/76B0492ZnhSzBmSeOZL598uG8PPPZgnz74fyZAZb5d6wcb9ATcCzGhPJGEcnC2MIZaxKPTvWr2l1YfRSP5tTsVXtomJTShfIrs0Fuy6a3h5o+SsdnflnOTmQxNeOvZuzDOKTp+JRf/pPjnx3J41D5QtlXmUzeGAb1SDDj2I4xQkpbK2Rsy6bDFQSfpQd+62GZPpQFnlvV8VyNyLcez+HAeEg0FQDPtmwkFZkknHoxR8e+XB/U/BzLwwnIkCBpPxWrtyqiTNQej1blveokHp36eQxAPOzbRoclDEUk4pHRynhBvfqAfOOj/xEIviuTk4qmplZUsVcmobB1a3j+Dz54F/z6vaIDQ5qEbC0VEqV6U6gqOh5iBkFEZzxhDkP41XsufeWDd2Hk4l/LJBRNoa8ViIcNkUkFPEdEv9UAgH/86kcOFraXtuXgFVmkUZ+9+PJ9NPXt00BdZJKAKSK6ts/ZMOMEZEggQRI6JmPu1IrIGAlFaOUmfSeLY4Auq6WgqP5UaISU8vLV83P+6Obxe6vMny0dnnn8W7ZS74raxT53+JB3+Nhpv/wnP/CFkpRvmb9Y9pWXyRkjPbM+0scjsRWiVK48W/HHNm+4tSLeL9Kx0x84e41bITI9oYmmDABceubRu7x85u0cyge8nHekkMuM1OuBX9i49Zt/fOZHvyEm/PpxmvpvM4AZ9LwdSzP4VcQBoGmBnDx51LvnYuaSJi4FoYRE0Cta8drFg2hxL48hQmAXXqVJxHCjuLHkVXzvrxtZ/tjmdx75O5yYwnKv2uPCJPO//9Cbdd7/ch6NfbVKPQSpLBsm9Mr6aIcZpJVA2C8U815DZf4emfwnC+/8/b+KPuiBdWMcFHLyqEfHToevP3X/mCls+9DI5g1fLOzbtDn47iwIYlg4BEhrrT29qQj/tbJZuLjwk3Ovffc/7p/4xvy1eM7WAy6wNyTE7qs3VUa2CxsSidNMuyge/WpItVxS+brGMEHpfPnivBnJ810eir9INMW47+Hl7wuZmciAQHos80tFjw9U5ioGULm4ZEk3M6+WJLJChIUEKldZqIYFDwfB6tcIkK5kmK0z5ORRD/edNn//9YkN3pY9U1uvG//dTFY2Nv7+OzVpXOCw+qqm2ms5qZ3zTO08N15+peplyWzevenfjl+3/+cj3+7wXf04nIAMG8anfQCpyO/UXfEYJgukWYwwurQkEFiIFLgRmKxfe0Nl+gNH6NiX68vdF0LHZ/xX/9MHj0mjcsAEPiutAILErqW+HH9qfwmRiFKKTL3OElT2z37l/ffR4dUlBqxXZHpC477T5vypidLWjZv+RXG08FN+fcEPy68qLZUCTKhIAIYCIIAJlZZqMai8rMRUguLGwk+e+9oPfbg3pRgca8UJyHCQrGyszW2AKOarXzxiC0TIZgqE1grJLVyqBoUsbjPF/K/IJBROPXzFGlly5tGMTEKNbsr+SkmbvdWFeiiks8xM6Jf1kUymWThSlMpWK42w6MkN2Vz212USSs48ek1YISKTChMz/MqTDxaKIxt+I1vM/xiHl0LxL2VIERkmERF7mSQSheoEhiEE5TXKs5SlcmZsx8gTMnnUxWuHECcgQ0Aq1k0kfAQgLYCtPLgc1pN4AC3zFSIQs42FgABhUZqUX60xheWbK/e8/x107Mv1K7kw6O4vBbN3PvRuDiv7Ar8uRERkHYHN/S/9IlU4kiBCSlFQbwhqlesX7n7o3XT3l/rShXGQ2GuDE/LifziaG9ux83/2isUfI5430ihrQFnTMxF3IGl3QwSIVRYCwEFFEVXVK/fs+ScDPiRHB5yADAOxUJwAkag3E6ABcHMT4RVYT+IBtMxXmK0VIgQW2/oWpLPVct0fycg+ltykTEI9f5kaWXLyqCcCyha9Xy1SuKNe8wMolUmaRQ2CSLTsHFSmXveDgja7SNGvi4Dk5NV7RR2L/bNfutvbfPjmf+OVSo9SOM/iVwmk7BdTQFCq7Tsaf2cVoi+wCoJQ2K+OFrcUPpZ6iyH8Ul+bOAEZBibjO0cVgQ8qFe0fXM4P5XLZVkMuHojFg6yCxmm9LCxKaV2r1oT9hZsu3va+h2564Okle43TsdPh3B8+9CFqlPcEvi9EWllJGvzxUyyPpJXv+6LC8u7yUx/+IB073ZP+J0NB9BHf8sY7fzs3WvwUhZcgYRVA1JlZQEt+R5P/CwClABhPQ+UKwVuS4V00ZGhwAjJEzN1zcRQmxIrjhe0urGH/hVF8EYpEIpP7QmAGkSKvUfcbI55s83KFnwMAnDq6qKZULCrZUubXcgg2BX4YgEjbXTWDF5Aov45ApAPfBDmEm5SSXwdaktCuGqICA7Lw7GP/3ttQ+hT8WS1BZWUJIS1YQ4Uk3DZhLXPHEOEEZBiYsuunx7t2iTCiC/GlVSC9QTC+bX9smOg0X5aoSEuUiRUJisAWjWK76HqVSp3CxvyBCzPv/wzuO23QpgpEkPJX3/8Jrs/t8hsBwX6nqdsFjFcNAUmaGaD8wBA3Krtqf/z+TwzF/LpILB7lM489kS0VHiH/kpawygBUutDCyizj6MvNAX3x9z64zf69y8gaFpyADAHxL4vF3AhE/c95ieWlPeMKGG7XVdt8BYAIR+5uW6OCEGVJSWyZiK16qJQOTdgYzZgRL5/7CSKITC4+L0rlfjnLftGExlof8ZbCgRMvmLZoC4i0CcMgJ35BOPPLV1NqqsikIoLM/+VjX/JKhUcomPXaxCOS0eV+Lsl3OaoOYxSVvBtTzziGACcgQ8L0BDQZfQcgsQWymKXEI11ld9hcWG3zIbGSIXGRr9j6IIKkEs9sz3IQBF6l0lCmurB/9vc/9AVgMgnSioAWnnroR9mv7AwDVkmD80EGzxPiDzH6TGxaNgFQQWgU++Wdc0996MeuBjdWVKKEy9/8kX+fGyv8EPkdxYOSIPnyRo1u4xxfaG9MHerJAThWjROQARMvhocnDmkiubvZQIpbF5ZO4tBeon0YM69S85Uo+SbpBkipflkSbyoUiBBElP1jUprD0M/Dz8DTnzpxakqlPCHkeWrSM3VtDIcCNK2PgYpoSjyS/1rbC6QUGwk94+usVr+43kt0nDx51KPjM2bhrz79bzMbSp9CZHkIxyV4UuKBlXw3k2A6GSMEgh7Jqjt7cxSO1eIEZNBELplDGNNgeTuSXW+pX9pS4gEsFo0hFY8kYhyJh1Kp2EdkfagodBE/HneeJSLt+wG4Nn/d448/9EVAINPQ5SeP/7Spl7eFodHW/5WyPgZ2HtrEAwCI4wtpa4WQUGiM5vrCtvmvvu9nZB32ChGA5OSkd+zY6XDhzKd+OzMy8iiFl7QEVQZI2934yRUOmudlpW9EBBATQXkF9ab4azQkEa5rnnX3xb3qOGx/CC8gyGolG8BCENVUhJWIxzCRnld602BkhbAAFMc8hKK4etQtMDaqEAmMkA4DZo99T5F8/K9+cvPos9/YmVOe/DPy68LMBhSVfxmo9dFBPKIoT6xv0RwVMxsVNDhD3s89N3PIA4bL83g5REA4Oanp2FQ4/1ef+u1safQxBJc0+xUBSCfXnywmAAAgAElEQVSvan4BsIb13kbLiIgyuGXmeLRmdYiFOfqPE5BBc9auNqX8+LgIMylKRZPXoXjEGWHx/FLiIUjVrIdASJIyJgRJWR/2lkA2mcA2/FNhEILr86P733bfbx/8wJt/VvyFcYhoe4lLlOwvGMg56SQeqYUz+VhBYBusMYY9blTG95YOfkGmJ7LroWig7RQZi8enfys3MvKj4l/SCJcSD2D1hySwvk1AEYkCZ/a/6egmAMCJ9e36u1q4anfDrhfiUuUlpa4TEyq2MQKOPDrrQzw6xV/SqcUpy4MI0UU5gYVtrCNyWRHF1zNs3VxQEGEIKwIRmdCAuJHJ5MzHqKErHNRDiGioyC9mgysDOC9LiUcaiuIgTdeOiLD4NdH50mcvjpS/CMDvMNDQINMTGlsPEdFUuPDfHv032VL+M2TmRax4RB9etz6A1LlSJMxCIka27tm2F8CF9R47ulpwFsgQIJNQSnCzgOxWXZGm+yp50ToRj1g42gL8EtU8steUAkZSKwrpBTi2QCIfOmzGliBuoE4sFJ6/hODC3ChEPIgQs62iNHziQYtv7eeYNpO01MsjWeR/4aXpiQJFnryeT3uFyPSExsQhOnFqiuf+6tF/nSnmH0c4L+yXCVDKHlbXxQNNy1IEYJUbVTc55RgenIAMkMlJe/6ff9P9GRa6wy6lqcUwZr2KR/QaSa/tkVciHfuIjYfIxWP/nzxnJcSm9BKEBeFCnfxLFQ5roQgIyhZ1HcAl6ZXEo1NAPc7mTSwm5kbN5Dz6ifFSZQMA4MRwCcjJyaMeth6iUyem8Ln3PPob+ZH8/6R43rBfVlY8ol7zXReP+P9sU7ohlMmrN2J6QkfPDNV5uhZxAjJATkQB9E3BfFYC87aWFbgtAD3U4hH/Pz3XmDgonkR2bOyDkkUiEhKOYyKp1rOR9ZF4p1ggVQZZRVL+rCGxr6NEhPp3ArB88WifV3RlHWcokdKmVs4Zk/8F+donSpiCyORw/DZtM6j78Nz5GXX3/T/yL7Ij+Z8mM2/YL2siRbFl2B35XuKcxinQIMpk8T04HJU0cYH0gTMUX9Jrlq1HCQA8TV4uQ7e2XL63L8jDLB7xY8DiOaYNknjd7GR9pFJ4KdkTEkXQhWxtExZw3W6cFAbYZ5gap8IfVmz6cAKwPPEAOl8kJ4kEieoF9Zop5PCZhrq4nQDBie7PeqWceeJIBvdtkxte/A/enhve+ivZ0fzniBcMN5riYT+M2KpaC5c5p9L8AWTz6q7vzkcCcnhiSH4Q1y5OQAbJ+W0CAOb1sOgRZRC7AWKfD7D+xKN9AY/WhNj6QLzbXJIUXSDKyAKkmdpLrQIjIpCaSd4vFh3/Ugjh5muo59HVlYjHlYj8dgRRIAW/HDTqmX8uJz8zQgSejlw1g+DMmSOZI4/uN6986YXc5kPvmsqW8j8DXgi5vqBJ2ah2i3m5Jq6UhEAEKFEQ8bK08cWXyiMAgIlDLhwyYJyADJKzMwIAulTaZsKwGSyIV+H1KB4dLBBKRIQS0YgcT5Frqiko1hKxUeQ4qQoiIAa4zk0xif6WG4utkN51H+ymeMSQgIUEpKrlKo2VvE9Xy6/cCABbz54byAcvZ45kjhx50Dw3c7Y4dtddv5gfzX8eMh9yfcFbJB6ymmNueTdcOQnBfqAMIuaQ93r57fbxKScgA8YJyAChKbufLuupG+LygtEPkq4K8YheElsflLYwYutDrI9bgDbrQ5qWBQtQM0gvWLGbixTBnwshJmWp9GQzYS/EI/ljEIlorciU5xshzOdef+r+sWNTp0OZ7m8JczlzJIMjD5q//Z1vlK7f95YvZIqFn4VZCLhe9pTWWCQea/p+LvecJhkWAmOUl9O2qKJL5R04TkAGRJKqOX0oI9CHmCUqcZ7KZhpW8eh0f4m5Ntf8OK7RtD4QxTckDpREGkpA4sICBGQAk7I+KIo9Q2xdLfYFYXsspOvnrifiEQ0RdS4E6fJ8RY9tyH88a/K3A8Cz+4/07Td65okjGRx5MPzb3/lGacdth34+Vyz8rOJywI15TykFjsRD+ioeyfMEELEAKqcOn4w6OorLxBooTkAGxMxMdO5zm3Ihyz3CLY784RaPZbbNFdjrxtjiSILjSRA9OlRpWhRsM1tt0JwIEgpQt21AEhcXpT189nXhfAAJo+S12I3VVSukfXFL31/jZyVJVpp4niaZm61rhc9858mPbrr77mcD6UMsRE4e9Y48+mD4+n/+xsiO2w79fL6U/1mShdA05jxSmjjqDxyXo+mueHQSkvYkhGaGYi6LO28uj9oWxy4Ta6A4ARkQE1EGVsVIIUdyD7PEroHh+UFcTjzSzy8BxT95IhsDQTN5NUmwiVN5Y+tDBEIKwohiH9a6INW0PijeZ5nSL+MDYc30yApJL3Scut8F8QCSk2KLR5IuL1RVYUPmB0eD6r2Tk1AYKfe0YoRN1T1t/vZ3vjGit936hfxI/vOKylHAXNtt4D0VD257Tafxm6Z5IZ/5nny+kAEAnHCZWIPECciAeO7UeQUA8yHlcwVvF0A8VH6rK4lH/FinP43/EUCRKDQ7D6LptoosiDhQLrFrim1sQ1iAeluGFTWdFiRoeS6YM+AAIBUtU11J60388OiJeCRvE3dIEVFaa7540S/k5Yd/5p0f3EIPPN3oVSxEpif0iVOn+bmZo6Wdh275QmGs+DniMptaa7ZV78Wj3eJoJ9k3Q7mStyeTh7VATgwm0cBhcQIyIA7hOQaAXDY/AhNI8wfSl40Ml+dKbqv0bQdIWq0PkWalXduyN45/cLScNLOn7KZC2EdDQVgzHa0P+0Y2lhLHSiQUmKpZlNa7ypOA1gWvh+IBJB+/GCFSpKsLdc5vyn0onMVRmYR6sfJwprtvCExPT2icPcSP3f1g/rq9N/1CbkPpc4oXhBvzSilFIs2Aee/Fo1NMpOXvm09QIPMXF8YBAIdPD/73cg3jBGRwMABoTTslMARKfkyDvaJabszjMjonFFsfSALnSBZ6FQ0Vx0RSixMBkMhdFQpQb3Vd2SZU7dNNJQQpgj8fghuSJO+szAJJvza2OgSti14PxCN5e4nnLNCU4XMXwyzxD9Xv/IHd+x75cl0mj3bNlSWTUGcnZgT3ncoVtm6fyo0W/ymZBZj6vFJK2+Iw0qtsq8uJx+UskIjQkOeN7gEATCzyfzn6iBOQASAA0RRYZFJpVvsNqBdpQ6tjueJxuekm1geS9ZfQtD5EBCxx/AOR+ybK0Ir2hFAgCOvxTvS4T8ji92w6NqLguxEEVdOS1ruCg289iBYrpMfiAbRYIVorXa3U/cK490Cgq8dkEgrv3tYVKyROdDsxM+HNl/b9UmG09FPKLBA35kGJeKCLqeTLEQ9geedWhIVFZ/TB6YkJHRuaa5ygY5U4ARkE0Rf+ta//RQGgN4QhNyuZD5rlZFtdZkFJlttYRBZZH2JTeFPWR1SpBOCm9SGN6D6W44ayi1K8LyRcCMGBJH+7fBGR1G1aPICei0caIrBt25g1r82yVvzphbd95AB970xNTq7ZCiEAOHXfUX3p+tKv5UbGforMvDb+PIh0VFs/Fg90ySDuZhICUWiEdA53vv29+bx9bNIJyIAYlmXr2uLUUQUAI2WUKOB7DLNId36pa2OVMY/2ITh2YQF28yCAeIG3ghJVwEBzJ1janUWBwDTa9n1cFk5ZIQIwEFQMeEVWSHsaKdC6uPXx4yGCMEhr5dVqjVpxU+7t2gT3AQDOr80KiU/FHfkbf72wYcPjFM57HJSFoJXEip985mt5p+Qd0RxsuQHzy0EkIuLl6UjhpnoOAHDqlFvHBoQ78YNgtEwAEIaNEhTeJCCDYTHDuxHHl+ZNKvIZiUa8A93ebwpTlJUVWR/LPxst7xAdAsHMhxCfAdV8/MpcLojbZ0TALIDSOf+1S5CG/2jlTz7yRjq+eiskDiXNP/PIbxQ3jv44hXNZCSocK0bvvoDdOq+J8HA+p984lslZAfm7chfGdqwGJyCD4IVnCQC0h3yx5BEYMjD1iMUifZu2RK7056lbQfSFYiRxEDtks0dWHPmQOMAuHLmzohaMvoB9BinVZn10WoDag95oSQ8OywYcNP9/+dmnj6I53sCI3FhaK8+v1cqlLZk7xQTHAAC14opTemPxeP3Pf+iL2Y2jjyOYy0tQNrASS0k8qqsuq16dVxGvqOnl1y6OAgCOHBmOi69rECcgg2DrUZuoqvKbiI1A9acI+SI6ZVS1u66uOEar9rAAohCHxBMnVbIDHZGbKpKb9B4Q8RnS4KRPelNA2n3l6RgFms8RmjWyNCFcMOC6gdKd3Fid0kbbXSwDhAhgIWERaC/feHVOsd/40eBPfuDNuP9pX84cWbYrSyYnFRHk9Wc+9cXSpg0/roL5nAQVA5CKvwAUv2d3Jo8endfo60QE4wtTbicA4IVZs9aBHavDCcgguO+0AQDPYBdCJsiAtp93Eo9lbkeJrYj0S1X0hHBrv4841TaJz6b6fQD2dQqA+AIOpSV1d/FCv1SAOz6kOC3HBuCDagjjp6r4LkrJTQ4erdlWg4eIYFigtfKCRr08Mp456It/lAiCF2rL+srI9ISmqSme/YtHfrO0YeTHKZzLS1gJEVke0adHkZnWpZn36LwmXwUCQqai5+2bBBQdn3GpvAPCCUifkWiN+9ZT9+cM4WZj7K63gVkg6ftp8biCpMW/YwhAyqblsghEIaptZU2TuOZVsq1Ams4uEdgsLAikzoDPzTUiOlGdxSOeARbdj8u8x1aIKdty76SbwtIcC6n7fUrVXS6CuAQMMYsIeYX6+TmEldpj5Sc/9H3AYXN2+lD2skPIhKbjM2b2zx/5zcKG0ccpmM9bywN6kXjgyp/5sifecn8N57XdE5Z8FZiERYTk9seeeDAPNNtDO/qLO+n9Ztqe8wOKSyDzhiAUgnD/nVjt4gEsWzziPyGxrqokHTduTRu5nxBlRhGlLJFF3QYFiggIFlsf8Q7z1LtGt0vPj6IKvWkrxFRDm9WlOnUt7PEO89UgkRAKohRogVZKB9VGbWxTZq9SfIyOz5ja7HNLfWlITh71iGbMpT/99K/nN479JJn5nIQVA0mLB1F3j7uTVbgG8Wg3QKN/AqIwFMoV9RuwC0Wg2R7a0V+cgPSbWXvO64IxMep7Q8MMIuqrEystEqsRDyBK040jHfGFrCT1p2wJk+aCTRQn7TatDxEBFEHqDG5wUjsrNtNa7bKlXE9tRGKVtkKCCsO0lURpjjlklgdi8WieV2HYarha5WqXFsJGtfFI5ckfeM+RRydYpidarBABSE5Oajp2Opz/ix/5tcLmkZ9SZi5jA+akE19i8wuAtR932qXYbiV2VzyiOBexiNEF73sLu8dKAIA+lr13NHEnvc883zigAMA0zGhxg3cdgICQXG73ljjDKhaLVYgHYC2P+PW2WGJsicRLnnUUNTWqs/UBESgBJJCWneOL926sbEGKd63HJeQBWyPLNEwzFrJo/CERD6TFA/aKWwRshJTWurFQDzaOeTuDsPYA0YwBkASQZRIKJyc1HZsK5//ih381v6n4WRibqguoKHOr/YNe7XGn/UtpEe6ieMT/bzM8lRIhgSmMZUpefb4AACjsH44P8BrDCUifObAjKwBghAtaRddTqofqkU6RSsc4Vike1vpoLnJJSXVEG1mEkg6Eaeuj+Z6R9cHWSjE1ttlXKo6PUBTHSL8jsNIFqcUK8QhhlRFWU7EQisdM3w6WpcQDAEACZhGV8TLVufmGChsfWHhy4oOYOCQnJ2H3hdw3qejYVDj/zA//Sm5j6Z8imMuJX2EAS4jHWkifuzYTYS0WXbuB2cFryTbtmCAhB7XcOAA8+2cv9NkH7ACcgPSfs7YKL4naikYIIiGOi9Z1m7S1kV7EVxgwTxPHOmw5EkTrRGuZdmt9UNNnLXG7pHTsI4qhBBI1gko3mEoOIH5XrHRB6mSFcNXA1I0t954szsMhHoCN38TNslrEA/YcmlAIRF613ODRotoV1hsTRFN8YMO9GREhOjYVXnrmR365sKH0OZi5rPHLApCOR+ueeMgS/9pdg6scNv1/YJGo2NgQAaFRvtF7AdCRl58NV/6GjrXiBKTP0BRMFDfeAyMkQipxCXWTK4lH+jUrGDLOpJJYH6Rpedisq8i6EIHENSKjuEZc2j0d+0CQtj7sMNGA0buu/mq2PRZi6gZhxfZWb00THgLEWnZN0U2LR2z5AcaweNrLVGfLdQr8o+f+74cevv6nn6m98qVdhdlnfniysKH4eTHzGfEXRJFSzT7J3RSP9s+k/fNZpXgsNWzb8NGpUQhFdEZuPjn5cI6mIC4Tq/+4E95HorVW8OdvKQF0M7Mt/9fVi8PojVo2aLS7rGJW+J5EsUsKySKXtjyS1FtKiUl80BJvLLT9PkjEuq7C1tiHvQDvTnyixQoBAWJdZqZhUhlZqxq6uyxHPEQgLOBQSJi8hYW6bCipXcqEE9+avP26kTe+9+dGNhZ/Tsm8Mg1bGDHp59E1kWxf0dstjx4M22H4yMVHJjSUy+lDR942VwKA+3DUrWd9xp3wfnLiqAaA2QuljcxyZ8NnAkR1tZJ7u3jEjwFrEqlYKJLMq1gQFCVuKqHmr99aKpEgLGV9hPZ+M/aBtP8qYm3npt0K4TrDlE2SWtxMFx4AybmJ3GyXEw8DiBEIA8aE4mWz3sLFecPV8m073v3WL2VL2Z8mKWfD2gIppVXcSTBl0nVhsssIUHR72A5DRxcpFDIzCd6cHR0dA4BtOO/Wsz7jTng/edM/agCgOsbzWfVGwxwqStUhWitXEo81rJRN6yOyLmBFw14PNsuWcOy+kvhKMd2wIbI+YAsmNq2PyMki7QvS2he+tBUi0ZCmZvusqyStt48KIs1b6+KTZnbakpZHytozDIEi43OmXDd65Made0eu23A/eKEYVOeglNaJeLQGlNY46cut8qt8j9UOay9eCEJhYTy3O2QeAYDsm/YOT0DrGsEJSD95bTcBgJdtjGZL3gYi+DYlsQs/8uWIxyotkMT6oGizYDK2bQAV17hKFuPIFRXHdiSdOqsIqEbWR3z1T0j1Om/3ZaydFitEEYzPCMsm5WpbaeOp1U6k6aqKhWNZ4sHRrWGAlO11oiAjN98AvX2Lqb/+cgNBBdbyME3x6EqSwHJW+TXGPFYxLEUdZ3RJsR/WxgDgwN6RYXBIXlM4AeknC/8oAMCKSmJYREixxLuB10APxcMO0WZ9SFxd1/pg4j0dduGj5gIYPR6/MzOg2G4aZJPedR7tul4kHt25oEy6GUaCRgBMnRFWTCqtt8cXrynRaLE6ON61b9//iuIR2qSDwk17KbdzO7g6qxXXciBFLZZHV+JqAxCP9PNLQQRb8J8IdV9JQ9uiimdnXFHFPuMEpJ/86fMhAHjsbafAECgqgrWWH3q7eHS6343YR2x9ULTgp3eax5GR+KqaJamFxSnrQymC1NhuGkyJhyTnIL1ydHdBb7dCOLZCIsNn8ebCbr55SjzQ6rKKa3c1BbiTeAgkEg8moHjTHuR3bgPXZgFTAQtBmNFb8eh0vwfiEQ9/2TGSixICswiwb3ISHo7DCUifcQLSR2gGRs48mmHQDXa1kmiLwmp9yB3EY6k2tKudc8r6aGYtLbY+EFkfSEdEWKCi1YGZoETAvg0IN4PYSKXT9s4KaJZGaVocxmcEFe5Q4qSLtIkH0CpWcT2w2DXYSTxABAltmfviTTcgv2MbuHYJ4AqIlG0FvMp9PUtOepFgdKFm2JU0KX17OZJKBaQkYFJZuuX44XeNEWB34zv6hjvZfUKmJzQAVC6e3wSlbg59JoCUrPYHfznxSD+/ljm3WR+AJBsJ260PRIskJ4UVbbwjfh0RwBXTZn0g5QrrffxT0oUWFYGDyAqJhLDrVkgH8aCWeAsl5zgpBZMWj8gjZYzdd1O8aS8Ku7aD65cAUwVBQSLxkL6IR/r5Lg67irBX9L1RJmDJZuiu3dvHNgDAs7uOrLjZlmP1OAHpF/tfUADQqNa3EJsjjYAFEN3s1LcCriQe8WNrpJP1EQfL04tubH3Eu9BFEDWNsvYIM0GxwPjW50/E0SE0rYJ+QFGwPp43gcANhl/uVGhxjSwhHiyxhWitDU5VL14kHkJgY8974aYbkNvVdFsRUYt4UF/EI36si8OuMuxFEBARGZbAK3i3ZYqFjQBw5B3b3JrWR9zJ7hcLIxoAlGlsyeX0zSJo2Bq8K7zivZLbKn27BjpaH9S0PtCUiyT2IVGQmglJ5hViAaozwOm03cQNsea5rgRqt0JChlkI0VUrpF08qFU8iBCl5uIy4gEw2z4rpZv3Ir9zG6R2KRIPBZGm26r34rGGuNRKvGErGj5yfwJhbktB+7CZWMCBlc/RsWqcgPSLF18EAGS1KnglLVBi1Ep/j8uNeXTBDdO60a6547xVSOzjHAsJ4uq81kIRAMIEzQJT5+iKGUAkTAPpwxhbIem03kDgz3fJCukkHtwqHsxptxUtEg8RGzNiERRv3ovczu2Qelo8othT32MeK73YWeawqyEydQVQ8OtEFYwDAOb+wnUn7CNOQPpF6Tu2D7ofbkRgCEKKV/rjX654dMkC6WR9JOV3U9YHuNX6QLQLPbY+TCW0mVnx4peMOxhIqOnGIoKEgrASgiXlllv14FimeFg3nhWOVvGwAsIo3bwP+R3bIbWLbeKBrn7WXfcvrWTY1RJbvBCF0EAxXQ8AOOKKKvYTJyD94izsF1urnQijHlKSEoTlsJxsqy5d1V/W+miLiZCKMoVSf8siECYQM9iXqKSf3e/Rq+LDy4Zgg/4tab2CcD5MrJBVE7mlViYe1CYeguItNyC3YxukcdEGzBeJB7r2WffAv7T8YVcLUbwpUyFkhGQOnnliYgMRxGVi9Q93ovuATELRFFj+7H2jBLVPAoawaERX68sbpLcxj8VvI1EMBKn01zhQ3nxcmACO9n4QASAQR2s0EbhirFuLIuuFaM1rR3eIYiGI4jFGECwYcJwSuxqWFA+y4gGCUCwe8T8bDI8fYyMo3XyDtTzqs0BYs6m6afGw0+8SXY559HjYJmytXIJi30Bn9KHdBzIbAZeJ1U+cgPSDqF/z3MXaFiG5NQgFaFYwXz5dim8sh45vQ83nJL1ARBfEItzyd2TY9vtAas0YDvWwJJZbVGHYCMKFZrn3VZF2YaE9WUCiE4U4gh6ZHDbjyhhG6dZ9yG7fDjRmgbDajaNc3qRXGt8Y4LDxoPG1TmjEZDP0xrGi2QwAR95aG6Zv2VWNE5A+8PyrBzwAUIFsB9NdfmAYgL7iGhW/IH2btkR6hN01rpKMpDhgrtCseRU/TpAWF5qIQOL9H2UDcLOI4VDQdk5JrBsJsC6lcD4EzAoysWKrI30rElkfaVdf52wru5dGIQwNRg7tQ27bNpA/Cw6qVowotQp33WWVvk1fEXRx+DUN2+kzkJb7ypqRjfzO4ibJYRMAYOywW9f6hDvRfeDAji32PAttLY7nxgmoqWbzi850yqhqd111mXRlWuZ0lVorCHGQOXFfIQpGs0TWB0EJbCHFkMFhuoYWBi8iHc4pMTfdWGJ3yfvzASgS0EQYOo6HRXs9IAALg6AAXKY8Sey2ErSIBxqz4KAC6ql4tJsG7T6mNQ7flWHbvzCCRYokAqVI7GZcgaqwTeWtl/tjpjucgPQTRUExrv2kVFwEagk6iUe6XEWXkchMiBe1xMsSXVGrVBmQRdaHUskgoqzQcMUkCzalFteBsZQgU1tGlgjCsoGEnKxXrbvH4/HWKh72XHPIKB3aj9z2bYA/Cw4rSJegt3TzM+8kHtTh8VWQXvPXNGy7yKXFg1pewyIkBIUwQN2YHQCA71ZdJlafcALSD2aDEACEsRGhARSRiI0ALkl6wYgXv66mbraS3nVOZAUjqc+EyPqg5o9X4lLkLC0LIlhsm9qU9ZEc6qAskE7ikTqPFLmekuMzQBBlZNn4TtvekMuKh134LiceEFsGn0Mb88hv3wY0LoGDaot42LeMFtKuu6/i++lVfvXJAy1r/pqGXUo80DZQ6vcgpMQ3pFnd8Mxn7y3QsdNm9QfjWAlOQPoAPfZsICePeqLUboRMEFy+Blb7Qgf0VDziNN3YOhKhxIVFkuoYmLY+4laDSiULJUU7I6ViEKeZJqmng7I+lhKP9EtaFu3IClkwYD9KJ0uOW6LXX048sLR4GLZizIBhKx657Wm3Ves8upfzmhxph/urfI/0+p6e6pqG7eRe6yQe8VOxGxWKAhZkcXDLW3dtBgCZdmtbP3AnucfEOemVYHxck7cfAQsAHffKWPwHKZHog3jY4VOxitQlZNMCSV2BS8r6EGt9JCJjGAgYHNg6HUkfjkFZH5cTj1QKNEUWBdIVcxnw500ijFYPo4ytNvGQdvGQzuIBIsDYTYIjt+5FbofNtpKO4hEN3lXxSI8LrEk8qO2265ZHp3m2QZHVS9CBb6C1un3LjvwWAMDhQy6Vtw84AekxSU56vbbDGD5c9w0B0IsEIV55ErO8P+Jh3zrV7yNa/Cg1j2bZEomu1uP5pbKMSNnYR9kkopH48AdhfVxJPNLPE6IaWfGtFQhTCcEBR4IZWyCLxQPt4oFO4qHABjAiKN2yD7ntdp+HGLvPY7F4AN0Rj07+JaBn4gGsYtjliEfnAQU2E4uZG4XNhT2FvN4OAJgfcwLSB5yA9JjtmzIeABDjumJe3xIa8ZUmarFA2mMcfRQPYCnro5mym+7mZxfTaJpxcUQSgBkqRNLnHLH1AfTf+liReDTnGFdXid1uwoA/FxVaVPE5SYtHc2FrST4wncRDYFhQutnWtkpKskdX7N3tR9IT/9Lidb59SHS4v+JBgZXMk0SihBQYNaI9Dv2oqOL1K5mEY5U4Aekx1xUCGwLgYJMe8fIE8gEiaV/Emr6PngfMW1nK+gBiHzNEIFEJk0Q8SOKX2CWKASYHCnkAACAASURBVC6HTcuja1lDK2S54hH/P0VcWT5xJ0EQVmwsxP5ZlHmdiEdz+KZ4pPZ7JG1obWmX0i3WbSX1WZCpNmNDXRePrvuXrrzOr3munQZdzjwJzCCQIgSB1BvhZgDA2FnXnbAPOAHpNRcuMACQoCTC1gmUBJaXEI/0cz3FLiyx9ZG4aNqsD4nnI6nXMZL0V7AARsCR9UFRyZK+sxLx6ERqLYutEBLAvxRGQ8QlSdrEA7HbKr1ZkAEViQcExYN7kI8tj7Bizx1SFwvdOQG4vHgAy1uULzNs+jF0eLyrgy5jntbvCAEUAkMw6ronjjyawaHngtXMyrEynID0mhe/EwIAC7ZQYAggJdS2wLUHdtvv94w4hhH36GjWrIpFBBD7A40KP8a7tpEWGLHdBklHgjIA7VizeMQkxgkl/8KqAdcZzAxrfjSHtwbEEjEPX8BkS7Lnd+0A1y6BTAWEVD+PrgWIeuJf6to6v/xB088vZ6jogkagERjJeNj3/T+6ME6uqGJfcCe4x9AUwpe/8mgRQrsR2kv8llLmncSjb7TGPpptaqOrb0KzSixi11T62jayRHwBBxxZJBjemMeKh5XEEmlcDCAMm6osredETOS6isVDKXDAYAKKN+1BYed2SG0uclulxENil9KaTwB64F8akHjEgy+T6DySIsUNQ6Tplo03qG0AgPe6ooq9xglID5FpaAAohS/tJC37TcAEQDcvEtsWuX7PL2V9pDf9pV1YoMhzHi2ascUR++3FMLgatjZj6veh9EQ8gGZknRDWGdzgSFCb58x2FowEJS0eiMRj1w6Y2lyzDW2qk+BlS9ksf6bogX9pAOJBbbcrHlX5AYe5kncwNya7ACRdQB29wwlIT7G56ErC60zIdzRCw1DQtuje2he5tdLs99GMfRCirVktGUaReKSaScWpqhQ2Yx9JLa1BWCDt91dxXuM/TecxNDOkgOBSaOt70WXcVonlsReF3dthYrcVUdLDvCl4az1RPVnlByQenZ5f5sj2woUIaHjjuRFRshUAMDrq1rce405wL5kt2BRe0tcXR/M72EhDgZQMgXjYK+i4tWzK+ogcWHGcRkSSq25KMq+iYLlhcI1brI++dxrsongslRQXL/ZB1cDUTSK6i8QjtOJROrAX+d07wJHbCp3EY82f+QDEI/181wZtF4+VzzntCBQtYsJwFAAQXHCZWD3GCUgvsYY0lJgN3ohmEIUqXpsHKB4AEO8+j4Uktj7i+5BmzAOIdpoLJeIiDCCIYh+pTXB9PZz2rDV7YF0VD2tRRZYaAY25EBxE54lt7CNJ1SWgeGAP8rt3QGq2hzmIgJ6LR6f7PRCPePiuDdo+19Wdl6RDJkiRHxCHvF0Awr3Xu6KKPcYJSC/RcwYAQglLaETawUwycMujaX1ILAycSisFbGAyvtJO7c6OYx8UMrjebn30KfjRXN1TZgLWLB7poYFm73YR66oiEEyNEVbZBs2N/WMrHoLigT0o7LbZVmDrtuqPeHShX+yVNCl927VBu+HGi+JzNrtDwWdRiq4/9a/fv4FoxhVV7DFOQHrJ/c8HIpOKjNqOwAACJfHV/MAsj1brw8Yz0FwskyZHSS4W4mq1iWvLABJ2sj56eEydAhRdFo+4mGS8sLWWcIksMiL4cyGMz4AimHifxwEbMOfaHGDKiPuk2J36/RCP9PNdHHbV4YkeCV0n4kwsQIlvSAQHbjhU3AEAMj3h1rge4k5uj4jWVK58/a+3QGM3QiMC6MtW4e3NPJLbTtZHstO8+RdR1hUn1gmkuZmQiCAhQxbFPnpofVzex9Q18WBuLmwiAub0OYotESCsG5hAkh3mxZus24rrcbaVisQD0e79fohH/FgXh111eKKP4pF6RxF4pmE4l/Fu3jTKuwHg+ZGy19U3crTgBKRXnDqqAYBq9d1guSloMAGkpc8WdbxuxZYH0HRLIRIPu5CmrrYBSPTViJtBWR0Ru+8jELDpk/VxJfFIv2YVQwKt4pHOTBOKxQNJ0JxFAKXgzxqEDYORW/YiH+3zaKbqRr08+iIea4gfrGSdX9Hw/RUPwH4+Witilnp+PLc9k83sBoAD27RL5e0hTkB6xIsvwgMANrxPabqpEbABRVV4+0irBRLvro43whHA9io5ugMCtVgfEu1XoLh0ic/gap+sj6UDFK2LctfEA02rQxClLbeKhwgAwwiDEKWDVjy4Md8qHvGc+hrzWOFn0FMjob/iYUeP6iYoMhjVQsbf0JM3crTgBKRH3LB71logHO4tbsiOglDTFCfCDgbm2C3TvHInRc3+3DYQ2WJ9CMOWaSeAWCAB2+ZJ1kzprfXRutJ3Fo81DtkqHqny9KDmJsFEPOxjhgWb33QAhb07m+VJeiIeQA/8S8sfdk30TzzsWyTZgwp+QIEfjgMACi+4TKwe4gSkR7zy7fNROJZyEvcT7/WPqI12749SsQsr8hmzxDnFSVMoZrZumrT1IQQFAfsSxT5UYn38/+y9eZAc13kn+PteZh3dja5uACRAdONqgOABECBFUCAp0cKMx6JIHSNRIhgeOya8uxOmYyN0kQof4Y0NGOGI8UaMY8IheWbWmN31eLyzsyZtSxQ9nhl5bBE6xhIPWSItyFrJEsFDvAl0o4+qynzft3+89zJfZVdfVZl9IX9BsKqrul6+yq76fvn7zsLfAOAsfXq/D8Uzf0mfPDghD4glDZ887PnZfue1GDwwBmldKlB5JDu2t7n5l5a/bM9YZfIA4A0DCxDFEgR0zSOn7higw+fbxR74ykZJIAVhF16JAEBEj1Kk4UokCje6HtKMotT+Am5wEkxfJ7YxD9uuXRFBwc7XswYWRCZttc3mRxFLLoVvfj55+Ld9L5khD/skdbit0mws1oLt77oWQ448YhMwh08efeyvy47tbU4xj4KXTVHIoouDYD+1pNBi0kz73vlzO3eCgEceOVXGQQpCSSBF4ZcQy5/fW1OCq0QLAKJVDn9k4IoGrSF1gV4gcUeZ3zEPJn3+hMynpC1Ak1dTQPWtNpZa0iUPdMQPnCvPiDDTgVcA1oxtdx7CwP5dkPYkJJ7F6pyMHuIba7hsQYsu+8gCCXRbI1B0aHR4YA8AnLq4tbRzBaE8sQXg9GkoAqQVhmNK0W6KWAS8qldBxoviSINNBpZLRYX5Zzqzu3gIUv+/+2cNKUUm9uFSkAtzSPjBcnfbZ9xj/pKSqA9J3rN1fiRz3s3viE0c0Fpj653XYfDALlA0BY5mbFabZ4VzVx3+rS8Zcly+r2W7EYX/2GpeadijC6CIVBxzuz5YOVAZqewHgJeOPVum8haEkkAKwG/YOehxszmhCQebLSYA4WpVamfjziLK3JJAkVgXFDzSMLEQ67hCIj5EIAGZiXxNhqi0Oj13V1w2PQqY77rqe0mTcUVJny8sTB4wz2nN2HrndRg6sAvUmlwF8shKg6w7qM/lc1k2ewkhyJ3oeoGkTRWDHXUVEO8AgMrgodLOFYTyxBaBra+FAKAYhwZDNaGZW0SkVqsGJGlRAtcskeFacrCkAd+ELhIisf5/mJ9JCCpmwKoPv+4jVyxEHn6RYN9LdiEPLE4erAXb7jhkyKN9CRyn5JFeDOTpZutGHtTl8R7g2/y+ls2SnE8e5D22BhCBUiIipr9M1G6NAMDOxgtlJlZBKAmkALyBRgAAmrFDNaoBiNoEOwe9YKT1HplGiSSpqiA3z8L97NSH17JDAFEEnjM9r6DS7KJcCaQbefhZTD1kNC2bPEz2wHzyYJPyvO3OazF0cBeo3ak8kkJBZ0hzd1+5+76V7/EYvm337/e07ELkgcxCa6RAiCBMBEChrYk0bwegsP9cOd62IJQEUgBaaGgAINaDZgasQKWNlgqFUx/+pEHAZRKZDKpkZIdzXyXqg0ylOZmUSIoZiNP1ci8cXIg8Ot9Qn0uugDzI9QJjbL3dZFshIQ/qTh65GcssefR4jKxt98mij2W7u9fW2GWVBXmpvLEWIYx/91+d2kEElnWzyc2FkkAKwGsXv2EkM/MI2pogUAKholN40865nVPzEjLJqg+nJvxYAEyxISmCzJkpfNmq81zex2Lk0WM6bDfycOfDPe8SAzrJw75QMxiCkRPXYstBk6rL0XRGeeSgCubv3FurT/LwX+YTR67Ko9s+1wHEuW4RoKlJVYK91xys7AUAfPlkmcpbAEoCKQC3/RKiS3/2c1sJaidihoAC5zoqDlkDnyoL310FwEXIE/VBrpAQSK/iIumqPlaFPLo9v+IlXUryfPKQeeShwJqhAYy+8yCGrx2DtCYBPZtRHr6Rz+Nv2c2/BORCHgIT6+gWnsidPNbJxT1ZpU0I2pFm0ri+tkX2A8APdw+WBFIASgLJGWL7gFRkaoID2s0xC8hr417YcVP3Sqo8AKU8MrFqA059wFct5j6zQCkFabJp1x7k7LpaCXksk6z6Ig+lwLEGw5HHOKSdVph3V139GEzfx5STf2mp0ETPW99A5GEhIggUEWtpDuwcHAwG1D4AGP5xXKbyFoCSQPLGo4dtE8X2AYn5ULPFgCA0SVFFfdnc8CN3iEw9RxL7SN1avvpILa+NfURe5hVyVB/LJQ/38zLRF3lEGkzA6G0H0Dg0ZsgjnnUiLT+Xnd3bfJnQp3+psNDExiMPwHzOlSIhIk2DikXirQCwc1ttnfjZNhdKAskbA2YOOjRuqA9Xt2qRplKkimyimKqPtBU52VYjaZ3H/DbjHdMGxfR8UkTgOQ2Ocw6cr4Q8elja3luaPMSRRwAdMVgRRm87iOHrxs08D0ceSGfF54OlyAPInTx6/pNtTPIAYDOxQCAotCIl7bgBABj4UZmJVQBKAskbFyMCAAXeXhlQQkCsFElx7qt09GoaLHYG33zJ03nmHqGYyEeHEU/UR96xj/VAHrZNO2sBggA60hAFjN5qyEPcMChkg+V5YCkfE7rcX+GSQE42frGF/efXKVwMj0hJrCGCnX9++t4GDp8vCaQAlASSM57/ezMHXXRck0gTERGLUFFfuk71kbpcBEjH0zoicPNAxLq4mNLXsVUfTYbkqT4KJo/UZbd88uB2DFHA1uMHMHz9mJ0kOG3fq51hLkWRB9CdPHJcsjDycAdYx3CZWIyA2iykgl03HB3cTwTI6dLe5Y3yhOaM/bjQlkdOVQWyjWKGAKofI7k4suojNaTuaNa+JhMFU/XhnjC3Tn1wZNN481IfBZBHEtdJEgaWdltptuTR0hBFGL31gHVbuXkeCsKWPIgAykMxFuBjWhPyoMztOobLxIKEuq0hWl/bGKEJADh/5HAZSM8ZJYHkCAGIzoAvVdpjUOpqaBES28KkABfWguojMZyGShL1ATdQym2WbOW5ycLScxrQku+0wZzIw73UvSwlD2BR8mBDHqQC6LYGB4KRWw+gcf04dNMbBuWTh/Rshf0dI3dLX5h3abl7LcoNmy9M/EqpOOJ2ZaS6c6BRuQ4ADu85Uqby5oySQPLEaVOsVAlmD0Bod9TSBJKgGAXSXX24K24Yb36HCwsCF/lIZ32ImTiItkAiIPfYR/Z+j+SRzfBdiDycIplHHjbmMXLrQQxfPw7dnATpWSCrPHL5W60BebilV4yVkMcGUCAwMb8wICGFVnV7TYIa7wQADF7aGG9gA6EkkDxx+8v2CoeOVALa04pZCxBKbv70FAtlXqUBdOfIcrEPN1nPGlmVrqFIILMMcI7qwzfEBZEHuUmPHnkgQx4uVdcEzA+gcf1uSGsSpGfsgkWTR7f7OZJHX96llRDdxrG9AgILSISURJript4CAHi7rdd4a5sOJYHkCT0SAIBoOVjbEg5A0FSFzEHvVB/+Vbd5zo1nTWdeJBOibMddgutFS0AkYG0m8pFQ4t7qSX3MD1CYx/skD39p//2bmM4C5EEKEmkwiSWPcTtJcNoGyk2+Z7Hk0edo1+Xy0Yo/YgUQ3ToBpR8aRTGDGNue/r0HK3ijbKqYN0oCyRGv/MTcEvMQAhIQiVL55fMASNxTfuwjJQ3nqjLG06kPQJI55y7BSBKiEMiMjX24VN6Vqo/FAxS5kEfai9K9f588qIM82L5/idkUCR4/gOHrxsDtSUsedqY77Nz3wsnDfz6nJfvyLhVAdOsJ4i6OoBBpIaKrR2qtvfRA0si+RE4oCSRH7Dr+jJmDznoIkSYAxGytdk5IXVZOfaRX4gmRADZ11U0PNMdPYiLO8IIgLTaBdTIxEwCmvfty97y4jyk38mBODZsrBnTvHVZlOfIQKIhmozyOm5iHtKeAaMYjD5j3vCrk4R7Lacm+vEubnDwAJFdJQMAtTUKyZ2Rs5iAAfPl02VQxT5QEkiduQ/zWn/98g0SNmugtKWPg8nFhpbGO9OfURvvqw1CGGQ7FNvZBhjCca0oEJAyejlP14VxXy9VMS5GH/zvLfo8Lk4cf7xEyBDifPMiQh4ipML9+HNKaSnpbOfLAqpBHj/GDQm38JicPC6tAwihmHYRqd32oegMA/IPby6aKeaIkkJxgbbnU9eSEQHZIxEQkyvqJcjlG2mU3qz6A+eoDSOvNbfEgw3MtEdBmc6Vm1Yerwl6WDVk4QNH5fnMjD3iqI43VdJCHEGDjH6O3HcTwoTEb8/AqzN2eVjXmsRJ34DKX7BmbnzwA87lQShGEm7Vt9Vp1QB0AgNfCq8pakBxREkhOeObs8RAABPoGEMZbEYtIvhlY2ewo353l1AdR2mXXWFj7O0SAskbepKiAZ3WSwmqK5Vfguuq09N3JY4XILtNJHpnaFp5PHsJArAXb3nkQw9eNQdqThjyoCPIACglQrIpA2NzkAVi3rQmDiISA6PYwAOwc/kHWt1iiD5QEkhOOX7fFSOOofbQaqmtiLRFAQZ4ZWH7sg9lVnQNOfTDS2AdgFQu5XCtjbF3gWFoMaKM+EtGxErLrtPTp/T7cdfOX9MmDE/KAWNLwyUMEmjW2vfMAthwah0RTljxUQeRh9md3jJwCFCV55AUiiPHhKoo1oLVpqnjHN8pMrBxREkhOeO3FagAABLWv2qgKQK1A5TsDxKTW2rC4MobABcohppeVges6a1w6aRDdriMCntFwfZ/I2ZDl2pGFyMO/XSGWJA/7JHW4rdJsLB0Ltp04iC2HdkPiSSAy2VbwyaOP/XXZsb3NIeZR4JLzUdjC6w7m724ysRjY9pXfu28XEeK13tdmQkkgOSF68zIDADNXrAXMuf5DOu4nX3/yvB7GyiaP+y81cQMxv9O2jNGP7ehTbSy1pEsM6HjfNq5jPXNgZkBgyOP2gxi6dhyIJyHtGayOYVxhfGONlkxR2MLrEsaLSwqRgICd147hIACcLpsq5obyROaE3ZPfiE7LaQLHW0wXXpDk6C5J6z9SV5arNLe+nTRDyQXJYWMfVpFAGXeOntHe72B5ttYPlrvbPuMe85eURH2I/34AdNR5MCBs/Nyx1th6+0EMXTsGiqfA7RmbmZZPXCaz4y63vmzI6RB9L9mNKPzHNq/qSGEvlkiCdksTiMZrW8LrAeA3xo6XmVg5ocxIyAl0BrG85+nxGdBWik30jsx85j5hvvgiBKXSliXMLo3VVnSQsldcYh9TIGZTEwGBcs+1tA1Au3G3WNqeZNOjAONncjnEvbyreUsal1s60wQLkwfMc1oLtp64FltWjTyy8sDVpfV5DD8M0feS2ZiGZB6/QsgDSVGsAniu3qiPSIgjAPDSsUoIoIyF5IBSgeQAN2dgZpKvF9DVccwiQCA5tATv1nHXGFrnksooE5Kkuloy89BFAD3DJmWXqOt1apcNLE4ePbixlkUeWII8YsHWEwex5dpxUDzZQR7ik0dubrbFyKOPY/i81PeSWZIT7x95j21meOrbJIcQQWIaCCkQvQMAdleuuhJYdFVQEkgeGEMAAFrJERGMtSI3B73fz+n8jrt+LYh5xAXJrfIwfl8zA51tPEQAsFUf1p4QydLXot3Iw3fL9eCiWzZ52PfRSR4mVVdrwbYTB7DlYHfyIEKBGVfuvm/pV5K9lrl1S/SxZOeelnKvbWbb2XkOCAApEWYoiBYRHgQAvK7Lpoo5oSSQHPDSzO4QAAKt3zG0JRwUMwc9hyD6wuojcVUlLdwpaUciAoiy7RKtERUW6Nm08+yS5LYQeXRsb/XIw6VnMTO23XYQW64bB+lJcHsarvFjWqVfNHnYY/RCHpS5LYQ8svu8EtDlHJBAWAgghUgTx3rkL371Z0Zw739urdUuNxtKAskBu3fvNndItqqKAgiaSPpM4bX6osu0wUR9iFf4lwTQO9WHJOqDTR0ICUzB4GKHXoQ8ekyH7UYenXPckWRYdZKHeSFrRmwrzLdcPwZEU13Iw7PCucc+3H2gEPLIHqqnhf3H0OXxzYoFzoEY1QqCQswihO3jt4wcIDKfkDXa7KZCSSC5YMpI4jiugTVIQCwuwbZXmC9EdtqgUx9JdXmiPmzYUAik3JW8NaoMcNOrOF9MfSxFHt2eXwILkYf7wvvkIQuQB4tg620HTG+raAoSzXQhD6BHK9xt18A8aw/0TR7+0m45dLnf08JAX/vckFjkHKQfOqXbTCDacfXO4BAA4MsoM7FyQEkgeeCB85F86b1DALYgFhIiZYrz+vnymi+GUx/OnZV02BXTqt0pEV99wFMfwgJJ1Ae54qoFDrkC8ljme+uLPJQCxwItkswwl2jSdtXtRh6Lvbll7da79X1KOZKHf5i+bHtJHss5B7bhZsiao3o1uLpWD28GAMzdW9q+HFCexBxAgMy0qxMgNSKaBRAlLk7RM9JGiWkLE3Soj46AuHjG2lMfpAU8p9PspH7Jw/28TPRFHpEGAxi9dQLDN+yGxK4lu9veCnp3LYmlfEwFkEfPH4+SPJZ7DkQEpIhEpB00qmF1QA4CALZuKRVIDigJpE+ImHOohG9g8FXtyAbt+g7idnbcTQgFsOm7rtdP2mCQJDUcAkC0VR8CWxuB7kZrJeSxQqyIPCQlDx1pMAEjt06gccNu0xgxShsjYlXJA1ixUS7MxpfkYbC8c0AQkDI1vQghos142+eveb2fq7sSFiWB9ItnTFUr6/i2qqKrYo0YQLCMJNlF4dQHURr7SGdh2CsrERPOWGA+OmkxsQ9vzvm8ba0H8rBt2lkLEChwxBAijLzjABo32GFQSVddbwxtLsga5KzLCl3ur3BJYBXIw3/+SsAyTy4R4DKx2ppE66Hf/4WT9f37z7VXb6+bFyWB9Innn7NSWPjG2kClCuE2gdSKRsLOgyA7bZCt9ykNiXjprkhVCezTEnvqw6mUbGFjweRhXrpM8ogFCAJwW4MhGHmHVR7R5WSGefHkAaAreeS4ZGHk4Q5wJWAFJ1dMOjsUCDELhEdvufOqPUTzRkaW6AElgfSN5wEAomULAmO7leqvhNBXH4n/nU1ViWRdOJ7iEPLUBwskoz7mTRosgDzs1pIlluW20j55wJKHbckeTYMogJthnl91+XIsfQFLFuK28m83IlKXIS3rn/tWsHffaX7f/QhzxSUEMAKJNDHUtl271XVA2VQxD5QnsE/sf/5CLKdPK9FcRaQJRMTs8m17wXz1IRmyAHkG2I99iP3axAJpGmPsnjP1H9lD5UMe7qXuZSl5mPfjnusWMNdsySPylMeNuyHty5Y8nPLobW8L7Bi5W/rCvEvL3etGcOnPJwqjUE3bfs2ESJt/bU1oxwqtrv8IrRhoxQrtWKGt09dpJjsCAPY49pYQ6FhzSLh6oKGOAsCHyqaKfaNsptgn6Azimf90/hqaxhaIiAgpKJjivRUZYd8ocOq6BQAxMQGxz5kvhIJwermfEA0AiRg8x6BA2YmDXWL6OZJHt/KQbuSRuNx88rABc5Bg5JYJNG7ck0wSdO9rw5OHW3rFWAl5rDcF0nkCnBoVd9/uVxEQKEEQAIEtcE0udnyXK/lruisl9/0g78IE0EIJIbE9oFKkiHWzNlQd0CGOAcDxu+bW20nbcCgJJAcwz95ACo04EgKJMqp5ZZ9NvxCO2X0xJLGZLJx8QawEseqDIWQ67gIAtJiqcyIo+ztC6VApt25GJuRGHulynoJahDwkYggceexOJgm6BYslD0fIQCHkUajbyl94vdjBdK+OMBjmNlBAGAgUCZSSpL4pignNiNCKFFpRgEgTYiZorRAzJUPDXC80p16UMp8xRYJQCYJAECpGJRDUKoxahTFQFYSB3RcFIoyYhgKhtuw6/uCDlSf/ZqZ+6tQR/eijj5a9sXpESSB94JFHEDzwADQx38QaV7WFBSAlyzQa2Rnn9lFDGO4LwwJRAkABYjrpQlRyZSWe5SYCOBJwq1N9pLYoQxY5kYf7OXEbdLjYFiAPUpBYQwswenwCjRv22Gyr6eScbDjyWGjJFS9dwF4Lg6cyE4VhRg+EgSBQgFIarQiYbiq0Y0IzCtGOFGbbCpOzhIszASZnQkzOVTDbNkTSjAI0I4VYK7AjE6daYEhDBYwwYNQrjHpFo1bRGKwyRgYijG6JsXWI0RhgDFYZAzWmMNBqW0UTopZ65ux/iG4/a1q6nz59Wr399tuVVqvFFy9e5JJQlo+SQPrAqYvHFfCM1nH0zkpVNXQ7jkAUzrviXwBOdTg/PwD4c84hAlJudKtYs2HnHNjfMld49tosFqC9gPrwjXDO5GFmtKeGzSzvyMO5FySZYW7Ig8FiigQbN+yxyqOTPIRsfKdQ8vCfz2nJTU0ena4pdgkfAMLAuKMMYRCmm4SZVoi5lsIrFwO8Ohni7ekq3p6p4NJ0DZebVQBOmZhbIkBZV1YtFNRCEyyH1z3aXKe4cQQKmgNMNyuYmjN7ibVxXcXavGK43sa2RhuNgSiY2KklkMrYv/hffulDr7cb5+M4vnjmzJm3ASQNFk+dOhVs3bpV7dq1S585c6bM1loE6+UyZkPix7+/rz7xP15ozvzxz3x9cFDdOT3VnCNFg1aILPra+Wm+qRpJ5l5oMX2tmABh8xxMPEOJHRYltxDp5QAAIABJREFUbOaekwLPafDlGAgU4NSHUx5ZueCTSa7kIYkSEcwnD4GCaAazYOS4Rx7RZRurWW3ycI/ltGSubqv1Qh6dbChiQnyAIY1QMTQDMy2FZlthLlJ45WKIC29W8MKbA3j5rUFoDlEJGYpg1Iky7ienWKygNkdzt0mMY4Ftkbsxv+A3SiCYzybBkJy27rAoJg5CpWoVQbvV/l6lov47M74+Ozv7N2EYvt1sNifPnj076Q5x6tSp4PDhw2SJpCSTDEoC6QPye6jQLyGa/uN/+NeD9eCOmeloDkQDyzXKIi7AzdadpRJxYBSJQMQYVTgFkjzv/tmvWSzgGQ1pi+ca94xwVnWYDeRGHsmUREmLG+eTBwFaTFfd465I8PLmdFv1jPVEHukx044IgFJGabAIWpHCbIvwysUQf/dKHS++MYCX3h6CFoVKkMYnCJKoFRMDt/cTElgClP6OJP9bfOfuThKYB0SR5RShmEWqYRgiCAJordFut79LRF8noi+2Wq3v1Gq1i7/9278945Y6depUAACliytFSSB9QE5DPf8/nKxe/RT99VBd3TI9y01SqM8TF91eK+IZY9+PbP8xQIoBMbEMd/UOAUgYbGMiwgKlFPRMDJ7WUIECM0MplVp6tzjQs1FenDxszCYJ+ntuLEce1g2nNWP0+EE0rne9rdaaPFZgmK8o8rA7kvTogR2p3I4J7Zjw5nSA7744gL99YRivTw4iDE0gW3nClyVVEvPeARX/rrJkI+bSxu+Co0WEiUhEpBKGIYVhiGaz+SKARwE8Mjc398PXX3/98qOPPuqq1+n06dNUurdKAukbl79w72Fqz31hsErXzra4DVBNlmEAmbPqwxgKEzMwaoPFKQ6bY8XeF0IAdkZXW/XRko6/aGKQ2X7O+zTKPgeZJR15kH0fxliQGAdWB3kwoLXG1tsOYMv1u4HIb0+SN3kkO7a3uQUoCrbxbpG1Jw+fOJRiMBvSmJxV+N7LVTz3wgguvDGISpim4rqs8m77ze1PWjycq0oRkVJKIYqiZwH8x2az+acDAwMv+6oEppbuiiWSjfNnXWdwCVSXH3vfR6XZ/tfVQHZGGhEElaXPqnhX9JJerQsBNuAtxCAxakKy6oOsutAmnVFPa+hpDRVa9eE7g33y6MM4L5c84GIgklEeMWPrrRMYvnEPJL5coPJIdmxvczTIqyIQ1o48fMFq4ghsivsYePHNEF/53gj+/rWGicGRSecwf/INTRiLgUVEiEiRkSgQkf8Wx/FvXbx48b//wR/8QQudn4pl+B42FzbHn3kNII+cCuiBR/X05+/+5xJFD4N11VZALaO6nyGiYK7TGcJ2qrnV/e7qzymNtCodyaWhOAdypI36iNPVV115uKOyrVdx88vF9blijB6fwPANneTRr1ttkR3b26ylX19LzkdhCy+Jzj+FURxagL9/JcQT57fihbeGoSjDMJkfNzPEZr0QkRCRiuP4GwB+c3h4+L+dOXPmim3MWLYy6RHPXPyRAgCW+MRgjapE1MYyv/kdMRLHFATTqyqpPkdKHn740IoU9+WVNiBR+gXuuJrPEVl77/e4cltLWpUQgW0qmbbkseX63UB8GdKeznVfi+y4c3/rdMkUa3nxKiDiZA+xBp57sYL//S924v/+6l68/PZQEsVwrWoIkt6/QsjD3icRQRAE7wyC4IszMzNPPvTQQw8cPny4upZ7XCuUBNIjjm81bRCUlu0qCIgADRAtbrgNK/hzziHmTyBiA+X2YbIpsKniQDKFMLE1bTZ1H0l6pWMVQb9X9/NSKm16sXO/Ja3lAXTOMIeZfghCHGtDHjfsAelpO8McBakP6XLry4acDtH3kt0+H/5jq2GNO8+RSclVYBY886Mqfve/jOFPvjGO1y8NGE1EyqseJ+/flQHyYB9iEVFEFAA4WqlU/vD973//dx566KFfAJJRuVfECSoJpFd897w1pxxC2CRNqcUuIyVx65gOuc4Isw2g24C6vbo36bDS0X03cQvZ3u7SYnAsnfM+gL5dV9mMK8BkXNlUyHTvwHzygHnOkcfw9XtB+vIqkEdWHuTsusplyWxMQ1AI0S1rD4Y4NBNqFcGPXgvwb/9yJx57ehfenK4j1goCQqDSi54rxCYuCnJfVgA2ewsAqkR0XRiG/+Yzn/nM1x566KGTAMSm/W7qk1YSSK84A/3ql+7bQYKaaCESImYs0IVXADuvPOme62IdSedd48IydRvoiH3AvsZVtwsAtMXM/DArpqaJOfUr9ODGWhZ5YHHy0DFjq08erZQ8xCeP3NxsfmAC9n7G19cLfF7qe8ksyfnk4bkoC0MSqYIII9ZALQRmWxr/79e34f/5+hheensQUWw+ZaEdiSa2F1UBXtENDUckIkLMrK2ba0ApdbtS6k8ffvjh3z906NBVAOTkyZMhNimRlATSIwiQoenoOggGNYsIsYkxzvuWWfcSeZlXMG4nEoIiZZ4XhihKM5m8FiT+FEJmWz/SZkjsqtedYZD0qr6HjKZlk4egO3kwLHnsx5br94L0FLh9uYM8iJBzxpUzwsr72bf0KzhG1gvmluhjyc49LeVey9/GpN5Mc5kRs8mgqoYaT5wfxP/xl7vx7R+PYqYZgkCoBOb3zRA/G/lw8bVNaQL7g/VsBUQUiIgWEQ6CYJtS6p9GUfSVz3zmMw+dO3cuBiCnT5/edK2jyo9ED3B29vKf3P0/K93+5wSMapEYgrDzW2YNh7XIDNMIznxBnXqwleYucwlmVK3xj5l4R9qS3RJIm8EzDNYCpQgsApUlrlUjDwFIQbQtErx1P4Zv3AN0UR5mS3mTh2/lHXokD0J3W09d7ve0sP+Y22dxcKeZrGaMtcJQXeO7L1bxxHe34+W362i2AwSBaS9iPJ+daqMkjWVDAJBN+41FJAyCgJj5chzHz4jIb/7O7/zOXz344IOVs2fPRmu92bxQKpBecNolpcR3gGRYC2sASrqRB8TGNQByvX+ARH0YoywQZX6JrNogLw2W5qkPsX2yvNnoQM+Xit3IIw30p+SBruRBYM2ImTFy634M37gXEl8Gt7LKw7uEz6XKvBt59KE8suTRzbuUO3kU5ROS5PMGCGJNEFGoVjT+07ca+PyTO/HDV4fQjgNUQ0m6CqTFrFdGdlXOIPs5JwAVIhJmbgMYrlar/yAMw9//zGc+8xuOPFxblI2OkkB6wZFT5lpa6JZ6NQxIKCJTaWR/wTMcAjtVU+w8c6sqkpnmhkzAftDcuKOSLrouIwsA5tjM0CDYWed2xKfvFlqBs3oh8nAH9MlDupKHuT/6jv1o3Li3oz1JJ3n456UXZM9tN/Lo4RiFeZeWQx5FuKxS8hcxHWlrFcbkLOM/fPVqfPV72/HWdA21CkMpgU5iHGkbmpI4eoP7nNt4iAJQBRBrrVtBEOwlol/79Kc//UcPPfTQ+KOPPqpPnz694VN/SwLpB4xBlUzP9As4PANMSNw3zkWVjqX14xvGS52YRoFJh3XqQwQKgERWfbh1gXQmyApjC32Rh1LgWKDFJ4/Li5AH0B95LCYRfEPdB3kAPS2z8oWLIw9z7o07ioUwVNf4zoUq/uPXr8Hf/HgEmhWqgakw71CZC+V/lFgxXLqvJZIQQI2Z20RUqdfrDwRB8CcPPfTQh8+cOdO2cZENe+Y37MbXEiIgPHGyNv0GvjtYDQ7MtnRLgaqcnE/xbsTGPpDEPmCDviY91z4OW+Nhf68j9sF2tsYcQ2ZNK3Q3g5BWSBpd3ou7t0LyMHUrI7dklYcxRphHHr1iIfIA+vIvFWbj14I8UvUAMem5ShFENP7qb0fwzI8aeGNqAIO1GCymrblRrU6t5LydEglsTMQRigYQ12q1WqvVerHdbv+fn/3sZ88AxqW1Ebv8lh+dHjH1n//x9TR56a/qtWCs2dJtkKra4EbyOwJxbdlgOufaDrrk2rTbsDoLzBx0BTvew874sOTCZuCOntSQFgPKrDuv/mOFWBF5iIC12BnmbgztPjRu3NdJHs71ljt5+I8BfX10Nx15WBIQk2VVCYDJWcGff/sq/O2LWxDHIepVbQcs+bGtkjxWA14bFLJ358IwHIjjWDPzI9PT0585e/bsKydPngxtxtaGQenC6hHUah8mRTXN5grDfEI8wyECNxvd1H2QF+MwxiRJ07VXgi4d1uoQpBlLAM8yELM333yVyIM7yYMdedy83yOPy6nLqiSPLgv7z+cJP94h0EyohsDrU4Q//sZOPP3DESgoVENGpE26uFMdLtuqRPFwVexWjYCIBrTWMRHx4ODgP9myZcu/+8Vf/MXrzp07F2+0VN+SQHoEQW4RpqE4FjJOz05j4SrKjUvHftGtb8oZbBMTMcHwdIYGzCwQclf+tj16S0M0p1f51B95WFG9PPKIBQgMebAjj8N+zMOoqdUjD5n3ityWLYQ83AHyREoeLKaxZbXCeOEthT/95k6cf3kEwwNmbDALQZHLAiyJY63gSMT+GAKotFqt2YGBgbu3bt36bz/+8Y/fdubMmfjBBx+srOU+V4KSQFaI06fNOSOtfyoIqC5AzCJBhz9eTGaVybzy1IebH+2uAl0Q3d534WBnkJLpfnMa0Da9N8niWrkVcATlXGPLcluxJY+2WPLYh8YRRx5dlMcKMsAW2CUKsfJr5rbyb/OC+cwoEmhbu1GtML7/kwo+/+QO/H+vDGO43kYrVpljU+47KbEyZEgERDTYbrdnq9Xqe4aGhv7NJz/5yX909uzZyFavr3v7vO43uN7wG/ZWWB+sV5UAop3OcMFMeBlIvvoQ8q/4qeP/btxnx+sFIBZwUzoysoiow1u2GNxH1c/tT46zRMBcu4B5pMFgjBzba8gjugy0ffLAijPAFtgtVp08/OdzXTgb+M8LqfKIGQiIEBLj2Qs1fPHpq3HhjWEMD7TRigPbxyonUVgiN3hNGV2QfbDZbM5VKpXbarXav/rEJz7x0XPnzsWnTp2i06dPr2sbva43ty5xBiKPnApEoJiFIInzCYDneiLYOo2UROCpD/HUh3N/kXVqubRdIYLM6aS/FTn1QLIsg5fN7E1cZF3IQxYgDx2beR9GeeyDRDNAdBlQm4Q83PK5Lpwlj7wseEoemk1uBsB4+kd1fPHpq/Ha5BC21CK0LXmUQfINAWJmUUoNzM3NtcIwvL5Wq/3upz/96X9qn1dYx3Z63W5svYIAmR3C1RCumHoOAdshHs4AdwS5s+rDGlpHFh3qwz5qwxMgFkiLO9QHnBtrCSxGHq4tt08eyJIHKUjMEGE0bt6LkcP7IPG0GUVLqcttw5JHX96llew3f/JgGyMLlOBbP67j8W/twOVmHbUwRlurkjw2GIiImFmCIKhFURQrpa6pVquf27Vr188B4AcffHDddvUtCaQH6GjyABFCEZd976VHerGPpHCQPPUBF5xGok4s3SSV5Unh4WxsW7c78gBcVtZiyBYI+qqjQwEtQR4sgpGb92LYIw8qnDy6GeYcyKPb/Z68S8tdOE90ZlsJCBXFeO6FGr70navQiqoIlIbmkjw2KhyJKKVCEdFEtKVWq/3WW2+99Y/Pnj0bPfjgg+syO6skkB5ASt3EjHqk3QhBzx2VZF8Z9ZEaamt4rfowcTRKjDeQkgkEIC3QzVR9kKWqpSxDljxci4ok7jJvT16RoFjy0AwNQx6Nw/uBaAYSTcE1dCSgs/q9Z3Qzxpz5nZzIo9uo8RXb+uUunCfMmo48mE1a7vdfCfFfv30VLs7UEQYxNJuhTyV5bFw4EiGiUGstYRiODQ4O/m8f//jHf9qSyLrLzioJpAcQx7crhRobS6zMF9z2NCGjO9gqEXjqgz31AZtOacyOa1eCJEjOc2xfl7quvOSNruhGHsxe0N5mVaWZX+ggDwEZ8mD2lMdMojx88qBCyaMP989KbPy6Jw+zttj0by0KlZBx4Y0Af/7tq/HKpSEM1GLEuox5bBb4SiSKonalUrl+aGjoX3zyk588fvbs2Wi91YmUH7ceMP3HP3M+RHxjHOtIlArBprzPQYQBURBw4qoyM6cVmNmSiAKQxN7h2ppAADCgL7UhWqCUMqXpJnl4wT0tRh5ElBKHYYCu5AEtpqvuLfvQOLwPiGeA9qQZtVi42yoHiVC4jV9t8nAtSgRaE8KQ8Pqk4E++uRM/eKWRZluRUykFbKHEmkBERClFzNys1+v1ZrP5tXa7/T999rOf/QGMNchK9TVBqUB6AIF3hCEJmy66tqA8bXCYGBVyKsMqEnaE4c1Eh3vcubdc5hWSNGCberXgfhYnD3iqA2kdiU8eQhAGYm3ak4wk5DFVkkfHAQpZeOEjJkFzQhgQpmYFjz+zEz98ZbiDPMoOupsPnhKpN5vNuVqtdle1Wv3dT33qUzuRzsdcc2yKnvSriVf//bGhKlUfJqJBZmEQBbDT28xf1A6JStq1GxJQ4s3+ENtWQsTxiYmXABAt4OnY8I+yGVe0uNHuJA9kyIMS8jBNDmH2kSEPrRmj79hrlce0KRLMPVXXvtn8/Uur5F1aRfIAkqQMFgIpjS88dTW+faGB4QFtUnVdN4LitlFiDeG1P6nEcTxXq9Vu0FqP33333Y8DoAsXLqy5CikVyAoxODK2WwhBkoAFqzrIy6xik4xL4p6zSsJYBdgnbEyETboukZkJMmcaciaGwfy06J46yQPoJA/2yMOShk8eItBaY/SWvRi+cR+gpzMV5siRPMze0veUozHeRORhjmA+LzETBuox/vK5ETz34hCGqoxYmyr0pB6tJI9NC69yvd5qtbRS6oGpqalfO3funP7EJz5RW+v9lQSyQgSkDgEIOe3dboPKMA8QjPqwOVUEAbH9TRHrijLqgwDjInLBdS1AUzoF6hLGYUnysE86MjPkQQnRcSyp8tDTSYV5R6quf9sXcg6YF7xsJwpbuCsIpjniQJXxNz+u41s/bkDrwL5VSsmjxKaHq1wnIgmCQAVB8M8+9alPfehzn/tca60nG5YEslJQfAuAsKt2tIWDvjulI28qYRwbLxc7pdAqEpnjnuxS1oXl97hKj2cOKkRg2/ZXa8bIO/Zi+Mb9AE9D2tMrP/jKd4vMWVnXyxoUtnD3o4mb6QG8MSX46vlteH2qjlrFNEcsuePKg1Uigda6Wa1W91QqlV93kw3Xcl8lgawQHPG7AFQhwiJscqNcgSAAdl1pDUPAn0IozsqJsQ4CpBlZGuAWJ8F0AAuSiV8gaG4lUR/ilIaLr3QMg0LiXotjk201fOM+kJ4Gt6aRdPj12ahvSJdbXzLkhFyW7UYU/mPFW24X+9CsEKoY/+XbO/DjN4YwaF1XiyVTlNjcsEqkHsdxKwzDEwD+JQCsZWpvSSDLgHiWQ2mcCAMiMROgTDmETcFNYyGS1HYk/U+92guIQJihQIAChBkyp9MGiYvYiGzGFWCydNIhQViYPGAIJI41Rm4xbiviaXD7ckHk4d6Mb4SzrqA+kOuy2ZiGoDCyWwTOdTVUZ/zXZxs4//IQKgGSmFWpPq5cuOmGzFzVWksQBPc9/PDDp8+cOROvVdPFkkBWAPnyyZCJ64qsz8kGF5zKICEQqdRwk7IqxNwnlw3lqw8GKDY9r5aqNF8WeWAR8hAx2Va2zoP0DLh12cT1/ULFXNqyp3tM4YI7Ofib/LTdvpf1F3M/CzpJpWg3VppqHSrg/Esh/ubHo2hHAQLFyd+5JJArF15WlhIRHYZhhYj+2Sc/+cl/tFZ7KglkGXD5UG9g6CroGMwguNYkLjAuSFJ3DZnApuladcKeKhE2ZsmWA8mMcWOK46UuWDZ5CBZUHjoWjN6yD8M37jduq/ZUB3kQoaCMK3fft/IrXD/rCXPL9LnswuThDoIu94tA2igRxHjib7fjrcs11CpGkbjAeW683ifSbtLrZEMFIPse18N7tW4sARAyc7NSqYxVKpVfP3PmjKlUXmWUBLIC1C/LfgKULe4joaQBe2qAnQvJGWDnerCuK5AyRoBttlXMkIhtv6vuCqR38rBxFzbFhKM3W7eVXLZuqwx5IG/yyF6990EelLkthDyye10tpO1l6lXga383hJfeHkCgkDzuepqtpQLJGlKlFJQtNN1scC2FlFIdP6+H92o9WSQiITMHAO54+OGHP4k1qE4vCWQFoEiOCBAYey3WkeV6Vdm6CuvKgqRGwRGKiYnYvzHZGeizOunW2w3dyMMZFPd8UmOSIQ/zQobWGo1je808Dz09z22VkAfysFC+Zc9ezRdAHkBPyy5NHqtjKFztkBlNS3hrWvDkD7aiGQUIA6M+XHxqrcnDN6BKKbRaLURRlJDIerpSXyn8vYuYFkJxHKPVaq07ErF7EACh1joKw3BAKfXxX/mVXxlb7bTekkCWDyLRxwUSsBYymVf2AlgoKfxLyQJJEN2pj4QobENFihkS+bM+Og+4EHk44+aTh3QhD9Ym5tG4ZV9CHqZI0CePvi7hk32lt/56OZKH+zkX79JyyGMVMq7s39eRR73K+IvvbMNb0zUEynZHXgeuq6TBJ3PyuWFmHD9+HAcPHlyXRnYl6EaO7XYbBw4cwG233Wb611lS8c/BWsKLhwS2/fv+drv9m6ud1lsSyBIQ12H9NIgVn1REiki0gFRy1eWrDxDgeltl1YfLjiICJerDZnFl7Fku5CFmDO3I4X0AzyQV5p3kAfRPHgX4lwrzLq0P8gDc3zd1TX3/5RDf+8kw2M47Xw+uK588fKVx4sQJfPjDH8Z9992HAwcOoN1uJ5+njUQi2b0SEdrtNvbv34/77rsPH/7wh3H77bevSxKxUHY/lSAIPvrLv/zLJ7GK/teSQJaCy8M9AiLBQQUiwx1EZA16WudhTacjhMSeGhJxBgMCSFs61IfJwPIO2yt5KAXW5v7oUee2so0RiZL9dVYyF0UeQE8GuTDv0vohD6NQ3d+PoJnxpWe3Y66trPpIA+frgTyCIIBre3PnnXfinnvuQaPRwNjYGO6//35MTEzMc2etIyPbFf4eHTlEUYT9+/fj/vvvx/j4OIaHh/G+970P7373u6G1hoggCIJ1QSJkIAACZtZBEAyJyG8dP3581epCSgJZClY0XKrcPKxiVlAQZhPkEJfCK5S6qtgZeV99wITaxfCRaOlUH5j/QVwReYhHHhGDWdA4ugeNI/sh7JGHVUH5tMEoyL9UmI1fP+QBpJ2bTXxD8J3nB/CTtwdhalM71cdaIEsezAxmxp133on3ve99GB4eRhzH0FpjbGwMH/vYxzAxMYF2u52QzXowsgvBf3+OFJzycOShtUYcxwmJ3Hnnncl5WC8k4gLqlkgqAN558uTJf7Jaxy8JZAnYi3aEdNUYg4nZVHSAk6AHXMfdpICPbKfdhEQkqQEhF/vQ3KE+fKO+bPKwbdpZe+QhgsZNezBy0z5DHq0uXXX7RkH+pTUhD//51YH5XACwqbsxC776d9vAQggCnzzWRn10Ux6OPO655x4MDw9Da40wDBEEAeI4xvj4+DwSycZN1guyMR2fPD72sY9hfHwccRwjCAKEYQitNbZs2YL3ve99eNe73rWuSMQF1EUkYGatlEIQBL927733rkqjxZJAlolY07WwbRMZTJLEPaxNZhhXlW2PLi5zRgAnY5z64Flt7ZlxbgulH77U371M8ogFCBTYzjBvHN2DkWP7IXrWzvNYbfLo8Yu0ZuThDrBacHPp0/n033upircu1229hyOO9UEezJy4rZzy0FonxAIAYRgmJPLRj360w53lXFrrhUT8vbj9ObfVRz/6UezevRtxHCMMw+T3gyCA1nrdKhFKIUQUish1hw8f/hBW4YNdzgNZBALQGQCPnEJw/c0HP4o4/mkRMmXkzuz7cRAbMDGPWIFCLq3XBhibDJ5LA5JKqWQWCJDGPpbttgqs8oAlj5v2QXgB8ug7GluQlV8zt5V/uzpI/q6koEgQa8KfPHk1ZpoVKDKfG5dWvdoEspDb6o477sA999yDLVu2dKgSX0G7tNfR0VGMjY3htddew5tvvtlhiOcnb6zN+/NVvyOP++67D3v37p1HHj7ZaK1Rr9exd+9etFotvPjiiwCQnCufLNfgvQkAJSKilBIAN46Pj/9f58+f1yjwQ14qkMVw2pz4I6cOB4j5DpD1Skva18rFPZKaD5gidT+kDPdBjMX0vFLU8eF0KiYlD2BR8vAD5k55HLHkoWeB1iYhD//5XBfOBv5XC6nqIJhi0L9/NcSrlwah7eCwtVIfi8U8HHn4ysMZSf/K2ymRPXv24CMf+Qj279+PVqs17xhrhaxKaLVa2LdvHz7ykY8sSB7+65wSGRoawj333LOulIinQhhASEQ379mz52dsj6zCNlQSyGI4YkzX4ZcagSLcaXqhiyksF0lcVcaxRTZQnsY+AEMwbpgTtY3LKVuD4RNHN/KQDHloNlewHNuA+U17MHJ0P8CzQHsS2Czk4ZbPdeEseaymQXMXDCZNN2bgie9thSIxabtYm8D5cpVHGIZdScDPZHIxgz179iTZWVrrjjqRtYJf56G1TmIePnn4GWQ+fBJh5g4ScTGitSYRLxYiIqIB/K/PP/981T5diK0vCWQZ+NFQVA0UXWVDnyJCBEnTcp1RcEFPVxEilhGIyKTtdlEfWfIgO5nKJw8sQh7DN+1B4+g+gGcg7SkzRGKjk0df3qWV7Hd1Yx/uc0Ik0EK48GaIF94cBrPyguarqz588nA1Do483v/+92NoaGie22opuPW2bduGkZGRVXgXvWF0dBTbt29P3t9S6EYi9957L+64447kvK1lnUgmFhIEQXDH9u3b7yxShZQEshi+a076tt0jo3EUCTMR2y6KqcLwRtcioz5cRIQFHDF05H+wzHO+6nBGxBiahclDtHFbDd+0G6NH94F4FtKaNF/uQsmjm2HOgTy63e/Ju7TchdcCaWZVqASRJnzteyN2rrlxUbpU79VCljzclbQjj8HBwWWRhx9TcGpjbm4Ojz32GJ4BGISdAAAgAElEQVR77rkOY7rWLix/v8899xwee+wxNJvNZO/ufSxk/LMkMjg4iHvvvTdxZ7l4yVqRiIgIM7sxuBrAr58/f74GQIpoc1ISyCKgM6ZxVZ3VHjAISkSRSeElMsOjXPAcIPtfqj5I2GRZRQI0GRT45OEIA3CGrZM8qIM8WAx5QGfcVnoW0poyo3EteUhh5JHt1ZYTeXQbNb5iW7/chdcKLqvOYHJG4YevNmz8yxWarp76yKayAoDWumfycK8PggAzMzN4/PHH8fTTTyMIgnWTiZUNigdBgKeffhp/9md/hpmZmSTGAcyPl/hYikTc76wFiVgFAhguCYIg+JkdO3bsKep4ZRbWAhCbgSUCaj67/24Cf0izSZcSm25FkioIpzkSw+2UCQCZ1eCWn6Wh7AcsNWzGFWaOnGRweeQhIEADmgWNm3ajcdN+kMxCMtlWJh5TJHn04f5ZiY3fdOQhEDFV5lFM+NbzA/jha8Ppn4mU+dCtwja7ZUS5VN1eyMOPAczOzibk4a7m1zpDycF/zz5xvvTSS5idncXExARqtdo8JdJtzz4RMTOq1SomJibQbDZx4cIFk12ZCcKv1nu3DCIA3D5+cuzYsW/+4R/+YYycvwilAlkINgMLn7u3KppuZi0u5EFCkqgP54rqiH0wg4QhioAWQ9rcEftI5j6gs5WCq2yfRx62tkRrxvDR3Wgc3Q+IdVtlAubFk0eP/qVCbfx6Jg+zDzL5FwiUoBUrPPfCMJS77CCTgLGW5HHHHXfgAx/4QF/k4dxWTz31VGJA1wt5OGQNv0tBfvLJJ/H444+j2WwmymIp1ZRVIgMDA3j/+9+Pd73rXfOUzGoqEeu+MilZzKSUeqBSqTQA4OTJk7mKhpJAFoLNwHpraKoK0u8WslYeAARQMt/lJCLWjZVmnHCLIbH78rirH3ffzOlw6oNkYfLg2JDHyE0TJtsq47YqLuaRg3+pcIGwnskDAFxDRKNY37qs8MIbQ0Z02J5Xskr7zBo0l6r7wQ9+EAMDAysmD2dAm80mvvCFLyRuK7f2eiIPhyyJuMeefPLJJCbi3kMvJPKBD3ygIyayFgqEKOnWG1er1XcMDQ0dBIAdO3bkymIlgSyEq08SAFSGdSUM1DvAJHYECLlsmsTn4FqVgGCGfNgeWE0NWPWBRDoDKXmkriujXLqQhwg41hg+thsjRycAPV1QnQdQkH9plQTCeiUPAGKaI4ZKMNcm/O2LdQSB+5OZ5IvV2qlvCLXWuP3223smD0cQzWYTn//85/H00093NFNcj+Th4JOIOydOiTgScQSzUhKp1+v44Ac/iDvuuCNRIgAWfH0RsORBMN16RUQeePDBBwcfffRRnef89JJAFsIT5wAAk5eDehDYmLYNdrgrSfOjAOypD7G+bE1A25ABkXFudSoPgggn5GGMTDfyYFNhfmQ/wHaeRyHkARRm5a9k8kCa1BAGgrl2gOdeHEYYuMAZYbX26l9RO7fVhz70IdTr9b7cVj55uN9bz+ThsBwS6dWdVa/XEyUSx3GHYlul9+ZOvIrjGCJyqlarbQOAV155JTc3VkkgC8NkYNXDHRLHBE48THaAlPVdW0KxrAAWG+9oaUjLqo8kAydDHoCNW/jKw7rG2BQdNo7uQePohJnn0TbzPOCTh3/bF3IOmBe8bCcKWzgXOPdVrIFXLwV4fXIIimD+9qu8Vdf76cSJE/jgBz+Ier2eGL6lDH438vDdVu53HJGsZ/JwcHv0g95BECxKIout5Z9L353leoOtBZRScb1e31ur1W4GgLNnz+Y2dKokkAXgUngHauF+l37pPjqCTAg5UQCmrbtogURslIh92gXa/R5XbrGkVYkNOkIAHTMaR8dtttUMpH256LeMnoLja7iswdqlhS4PAgghUMBsm/B3P6mjEojr+r/qIDIDk37qp34Kg4ODydWxe24hJOE/e8Xuxzw2gtpYLnxVknVn+edgsde72ziOMTg4iJMnT3YM3FptiIiK41hE5IM///M/34C54srF9pcE0gXW7uO7pw9XmelIrCUx8u4XXPCcYbJrIFaiKLGxD7OKGxjkAqlJxhWAzhnmMO4uEOKI0Ti2G42bDoB4FtyaShQP3Ic3V9Xh3/qSISfksmy3L63/2Ho1XgKGyb5qRgEuvDGAMFg9V0YW3bKClsoQ8t1eRJTEPJ555pk1u6peDSil8NRTT+Gxxx5Dq9XqOAfLOV/+/TUmWKW1JgA/tX379lEAOHnyZEkghcGm8F5zaEudBO9gI/gkVQqS+LOUCEAqIQfEpnBQtFElzKn1TAgEmE8eMAQSRxqNY+MYuWkCJDPgdlHkAcyXBllXUB/IddlsTENQGNnlDnMBESjBXFvh5YtDUF67mtXGQuSxVNwjjuN5ysN/zWZQHw7Z9/Xkk0/ii1/8YjL73Y9pLPT6hUhkLWDjIe1qtXqDiGwHgGPHjuUSBykJpCsMO9cGw3qk+T0szGT6X5k4ulBSs8EicAES8dWHMglZRB55YBHyEBPzGDm225JHp/IQnzxy+yBmrbwL6Pa5vp+22/ey2Rxgnzx8p+J6hE1zJaAVC165GIC1gut3thY213exLMd15a66wzBM6jz8gLn7nbUyjkUgS6guJvLFL34RzWYzaRi51Hlzt8s5zwVDbGwmIKJbAOBzn/tcO4+FSwLphrFzBACvvtqujQyqq0Bg0wOLiGzKLsQoBjeyVkRATn2wbZon6ZVmt95WvvLQEaNxbByNBciDbNA1/4wrd9+38itcP+sJc8v0uezC5OEOgi731xNs+m4gmG0pXHijijBw885Xp3CwX7jeVlNTU3j88cfx1FNPJdMGgaUVzEZEt/eklMI3v/lNPP7445iamko6+m4QEIAgjmOpVCrv+oVf+IVRmC9S3/a/JJBuuO6kAMDWxsiwskFQmytFvvow5V9ingkAaWpIxHbGlIuBLEUepsJ85OhuNI4eMG6rbuSBvMkje/XeB3lQ5rYQ8sjudb3DpWIDgRLMtkK88KYX/5C1cWE5LKf7LIDkSvvFF1/EV77yFVSr1Y504M1GHg7ZWJGIoFKp4Ny5c3jxxRcTZbaBoOI4JhG5a9u2bVcBwIMPPti3G6skkG544pwp9wv1rjiKIWAyXQ9s90MhM0SKzBwQFkBFAmkzhFMjn9SJzCMP+zsCsGY0ju42qbp6Bty63J08kAd5+JY9ezVfAHkABZHHRnCXpFl3SglmWwFefnsIgbLEQjmGsnrZ3TIP7oxnu91Gq9WaN/NiM5KHg/8e3TyUVquFdru9qjUdecDGQVoDAwPXBkGwHQBqtVqpQIoAnQE/8sipAIxrdey+7QAntSBkoxmSGHme0eBIYOeSdpDHvEmCRGDNiDVj+KgJmENmgCirPPq6hLfw3T/+ejmSh/s5F+/Scshj/RstgavGBloR8MolBc2BeWYN6j/m7W+Zxs/58F332iuFPByyJOK6C/uxjQ0CISJRSoXMfAsAlUccpCSQDOS0OSfvaV6qhxIcjq2/gYCUDCwJJJWFsYAj3zUhS5CHgLWgcZMjj9mkSHD+l7Nf8ijAv1SYd2lzkAcAc4lh25fMthRevVRBJbBDo6zbc033twIF4m6vNPJwyJLIcupB1htEhEQkjONYlFK3/Oqv/uowcoiDlAQyDy4/emZIhE/EWiBC5DxXzuw6mSEC6FkG2POXLkEemgWNI+NpY8T2lHkt0OXLWRR5AIWQR8/fqc1DHoBTqWQViMLb0xUo5fo3G1G7EbDOsonWDBv9PNi9Kjb9lA5MT0/nUg9SEkgG53FOAcBIpTI4OKiOsUATiJICQDFt18FWicRsYx9Ia0F88hBLHkqlyuPIbjSOOeUxlV7h5HZlV5B/qTAbv7nIA7C7FlNA2I4V3p6p2PiHJM+XKLHKIGYWrfWBarW6BQB27NhREki+OAwAmGypoWpFDUKEjf6wbUoAY8+YzVVmU5uAepY8bJt21pY8khnm42aSoMwCXeZ59I+C/EtrQh7+8xsJNjNPCCBBMw5wcbpuFcjaZl+VuHJhA+lRpVLZQ0TDADA4OFgSSJ44jPMMAKrKW7kVCQmRoRBJDb0NkiNmcBu2HgTGpYWFyIPROGxbsssC8zz6RkH+pTUjD3eAjQbnoiIQgLkWYboZQtmZ6BvI81FiE4FMBWs8MDBQI6KteaxZEkgWvwENgEIKx7UWEkUkScTTtChxQXSe1eZnW6PRQR7cSR7Dh3dj5Ob9CyuPvi9LC7Lya+a28m83GmwGFgFRLJicTRMWVmvyYIkSXZB8ELXWewDg+eefj/tZsCQQD2ITLr58+mRNR9H1mkWEmTiZFOi5sNoMbjuftnNhISUPyiiPYxMQmQXakyAVzCePvqzKGpCH/3yuC2cD/xsRktR/NNuESzMBwqT+o3RhlVgb2Pib0loTEU3ce++9tXPnzpUEkhseMefj+C3hkFLqplZsMvZJ0m65xvAT9EyctCxxFcfCJsMqIQ9hNI4Y5UEwygMUQIQ3Pnm45XNdOEseG/VS3WRgBUrQjBUuzYRJASH1++feIEgTSDj510vxnZ+8kl2n17X63dNGhX2vSmuNIAj2T0xMbAWAfiYUhvltbxPg4nEFPKOrkWpoJSfidsQuA4sIAAvAAEcMjhNGn08e2pDH8OFxNI7uB2QO0pwElAI2OnmsWrbVxrWyrnWNS+GdnKuYP/0mr5/wDbFSqmNIEwAwM7TWHS1CgPnpsNnnXfGej25rdVvHrb/QWj6hOGzWv5E9D27E7e5arbYFAJ544gmFtGf2ilASiI89JqVtcq45vG24tm8qQku01FyWlS3vQDyr7QdyvvIQ7WIe4xg9NmHIo+XcVkWSB6HzM5ATefjL9iUQlrvwxgeBACEoYsSsMNdWpoW7dV9tjnc5H85Qh2GIOI4xNzeX9IsiIlQqFdRqtY6iRGA+YfiEoJRCu91GFEWJkVdKoVKpoFqtdh03262duiOzVquFKIo6CKVWqyV73qzkASTnmWwtyDYAA0B/qbwlgfiYviAAEMc0FIZgO9NDBERiumNBWgyJTd0HgGSGOYgALaa31ZExNG6eAKQJaU/abCtDHqZ/VtHk4R7LcdmSPJYN83cWEAliTWi2A5g2amLzsjYPssZbKYW5uTkMDQ1hx44dGBgYSMboXr58GRcvXgQAhGGYEMJi8zOazSZGRkYwOjqKWq0GAGi1Wrh06RImJydRqVQWfb3bUxwbV//27dsxPDyMSqUCZsbc3BwuXryI2dlZ1Gq1Bfe0GWDfkzVDNMLMdQC45ppren6TJYF4eOK7JoU3FN7JrVgxiBQLuc65YAHPsbV9BGEG2+wraNO5tHFkHI1jEyBpQlqXQJSm6hZPHjm6rRZbtiSPRSEwCRcAEGuFVhRAEaB5c6XwdnMfaa1x9dVX4/bbb8eJEyfQaDSS3//BD36Ar371q/j+97+fKJCswc5iYmICd911F44dO4ZKpQIAiKIIzz77LL72ta/hpZde6tiPv5ZTHq4R4g033IC77roLhw4dSl4zNTWFb3zjG/jmN7+JycnJxL21WbsN21qQmJlHRaQGAFNTUyWB5IF/eAbxaZxWSn15bxyzGTzoVZQjEnDEaaqupC27WWsMHx5D49gB67a6NK/OY/XIY4VGuVAbf2WRB2DfkS0i1JowFylUQ+Pi3Ezo1vJ8bGwMP/uzP4uxsTEwM6IoAmBUwKFDh3Do0CF86Utfwpe//GVEUdRBHM7gu7WOHTuG+++/HwMDAx1rBUGA48eP4/Dhw3j00Ufx7LPPJi1GHCFlu+j+9E//NO6++24AhuTc723ZsgV33303Dh8+jD/6oz/CK6+8skBPuk0DERFNREMAagCwbdu2nt/k5vpE9wHXRPFTv/dnwxzQ9e1YCMKK2fbdZQFPa5uqSyl5sIBjjeEj4xg5dhDAnK3zyBQJXpHk4Q5QyMLrGmJjHiyEmJXtdba5sn2yTQWr1SoeeOABjI2NJXNEKpUKKpUKgsCkrkdRhPe+9704fvw4Wq0WwjBM1nAxjyiKMD4+jvvvvz+Jc7i4R6VSSVRFtVrFxz72MYyNjSGKoiTO4fbj2q/fdttteO9735vEPoIgSNZycz3c8ZzK2YgNE5cDMpAwDIWIQgAdKm6lKAnE4pmx4wEANAfqI4r55ijWwkKKYTtwtkxluWhfeZjHho+MYeToAQCzQHOBIsG+r2QK8S+tkkC4ssgDQBLrYCEzxhZixh5vInuUdfPcdddd2LVrV/Jz9urdEQQAvPOd78TExATm5uYScnEB89HRUdx1112o1+sdr/HhyGJwcBDvec97MDo6mpCII4m5uTkcOHAAJ06c6HhNdk/u3+7du/Hud797nrLaTLDvh4MgoMBOFdu6dWupQPrFSGtSAQBH1a2k1K1xJDHEpvAywLOm7oOBtGAwEjSO7DLKg1x7kiLIAyjMypfkURzs/LGYjTsLeX0U1gmyrp5bb701mXS4kOvHzRTZt28f9u3bl8wYd0a/3W6j0Wjg2LFjCaksBEcWR48eRaPRSAZeuUywubk57Nu3D3v37k1meSz0Ptzxb7311o73tNlcWPb9iD0X5UCpvFCPrzIEAh7ePlobEKFISCDadNvlCKaY0KbtciwYPrILjaMHAaTtSeCTh3/bFxay8v7t+lm2E4UtvEFgigoJBNDmIhAHZ2ivuuoqAIvXuzg3loig0Wgkri7/+Xq9jkqlsqyRsVprVKvVJD3Y35OIYHh4uOOYC+3fPXf11Vcnj21WOIJVSpUjbfPC7t1TGgAqUbOBdmy+8wyACTzDdoqtuYrUMWP48C40jh0E0SykNYXiDaPva1r/yxpsLvnfG8pzsBDydg9tNnfTRkBJIAnOawAg1HZFsYbWrEQD0mRoW/dBIMQRY/imMYwcOwhFs+DWFAj2isV9gHNVHf6tLxlyQi7Ldvvi+o9t3qu5FAv9vdwAZHPxsRltnMuaevPNNwEsnJLrnnPB68uXLycuJ//5ZrOJKIoWdDn5CIIArVarw33l9uSO4R9zof27515//fXksc0KIkIcx2DmpSXeEigJxIDoAei//pd3DESQA62WJiJFohnxTJxkW8UxY/imXRg9apRHceQBzJcGWVdQH8h12WxMQ1AY2a1bZFPZ0oeJgFAJ3DjLzWSXHHE4wvjWt76VuKQWMsBaayil8Pzzz+P5559HvV5PKsCdO2pqaipJzfVbjGThakmeffZZTE5OJhlbzkAODAzgwoULeOGFF6CUWtAl5vaqtcYzzzwzLzV5M8G+H7Lnoqf2JT5KAgEgp8x5GBuqjAZEN7QjFo444DmG1kiyrRqHTcCcaBbcTMlDfPLI7QOXtfKEXPxNvq3re9ms4fTJg7zHNjO6kYdL2CUoEvz/7Z15mBxnfee/v/eto7vnkEaSbY1uyZIhMiCI5IsQRgLb2MFCePGIsDm8hLUUIDZ27ATIs9lmksCSXSwbxQkrYQ7DEohGgYCNZRtseZBsyULCB8ixkWwdo3OkuaePqnqP/aOqWjWtHmnu6Zmpz/NAt1s9b79VXf1+63e+jAebj9HEauVenK20Y8cOHD9+vLDwFi++0df37NmDQ4cOIZlMFkQnTM3t6OjAjh07kMvlELY9KSZsYZLJZLBz585CVXooIFJKJJNJvPnmm9izZ0+vvyk1JwBobm7Grl27JmwRIVCI7TAppZaBirS3tw/6RxoLCIBXl4IDAJGa5in5TsfVEEIzL6cA6F4xD4ZAPCjyA/L/eAQyrsLn0VV+gOMXe1bCYYY4bN/iEX4ISjyfaJQWD8DfkRBag5GGwYJ+TRPsXISLa/joeR4aGxtx/PjxXnUfnucVrAzOOZ566in86le/Klgf4RihWJimiRMnTmDr1q1wHKdQ9xGOFdaF5HI5bN26FSdOnCiIR3TRF0LAtm3s3bsXTz31VK+6j3CsMPuqubkZW7duLRQrFh/bREH7kBCCtNYCAObMmTPo8eJKdAApzGfAEQjGpk9LGPO7OjIOE0gIoSClRvXSWZiy7HJQKfHw1WOYxSO6ygNDEg9C6bWeSjwf1MDR18K5Tgb6PgcaYdougXONpKkglDGM10h5UHynTkQ4efIkvvWtb+Haa6/FVVddhalTpxbe/9prr2HHjh04ePBgQQSK02Wj7UheeeUVtLa24j3veQ+WLVsGy7IA+L2wXn75ZezcuRMnTpzoVb1ePFbounrmmWdw/Phx/P7v/z6WLFlSiK+0t7djz5492LNnz6RoZQKAiIgrpTIAHABoa2sbtAUSCwgALFgA4AhYXlZWVli8U8DRWaWV0lT1OzODCvORFo9SJkL0v4dBPIrX+BERj8lQ53Hhc+DvOuj/t8EVbFPAzZsgCn2GE4NSBXecc7S2tuLZZ5/FSy+91KuZYldXF9rb20FEhWaKxQ0Qw+eAX+dx5MgRdHR0YOfOnb0EpKOjA11dXYXXwvmUGitsprh//36cOHGi0ExRSolcLoeOjo5J0UwR8C0QAJyIOojIAYDq6upYQIbCArdJAoDIihmi0tNwQJ6rqOqttZjyzrDOo1g8IqvwoC+y4lU+fG0YxaPUkCjxfFADA7F4AMXnQANB1TnB4BoJS6ErBzBGUHpinaFiV49SCslkEq7rorm5+aLt3KMWR/FzIkIikUBPTw/a2tp6tXO3LKsQPykWseLfaNgPi4jQ2tqKU6dO9RI827aRTCbPa+c+AcUD5N/ZMKVUJ2MsDwCnTp2KBWRIrIe3HTDI5PPzWUlej8uql85CVdiexOkqeXcztAVzhPxLI+ZdisWjv+dAQwHki4XBFJKWhNIEptWEi4NECRdlIQQYY6ioqOi1CIebQAGl7/CLf2Naa0gpC8ITRUp5XvykeKyooITiE4pFdM5KqcJYE9HqCAnOieaca6VUG4AcALS0tAw6G2vSB9F1GowATP3mzTWkaLHT4+qqK2rZlGWLQJTze1uRvxf6+RfXcIpHqeylYRaPQd9nxOIxkHNAIBBpKEWwTYUpSQ9KhT/gUZ30qBLtKxUuyq7rFv4XFY/oY6lxoo9h0DscJ7q51IXGisZDomNF5xTUQ/Sa+0Ql7IPFGCMiOuY4Tg8ArFy5ctACMuktkH0nwQEofvzMtDz00porain1toUmVA4633V+V90hM0L+pRFb42Px8BnIOfCvF6kYEobC1AoR7AWioQMRmcDrFIDhy2IaTpfSRM2s6i/BcSvOOfL5/OFDhw61A0BDQ0NsgQyWWbXLTQBIWqm3LPyd+Sv07NoOLXIOE13g/HzxGFph0Qj5l8ZEPKL/PhkYyMkN78KBhKUxtUJDBAJCheSLmJjRJSIgWmt9aNu2bU5dXd2QjIhJLyAnZsHTAKVmpF4XFanHVCYzVXe02ZkekZWe9EyDAQV/qtbFmSL9Z4T8S2MmHuEHTAYGenL9nQeVJpiGxpTUOfekxsR2Y8WUNYULkXPeDAALFiyIBWQorFi/zwOA2Z944vXtrx/475n29nTLydwOK69TIqfMXI+XUUoJw2A4pyS6V1zk4ozQKj9mbqvo40SnOC4FXPzkBoWE8Lc7TtoSlQkBpQM3ViwgMWOA9vdZNnK5nKO1bh+OMSe9gAAAAXp7us740N0vnJ7/h9v+LnM084n2jvw/tZ3O/sYWqPAywnCyIgtoSYwImgrfxoX6/viMgXhE/31YBy6VNTZRiSY1FMepLnZy/UuEgmLChCFRU5mHUmGNyMjOPCamFEENiOl5XrPWuhsAstnskPphxQISsKqhSQCgE4/eklr61784MLt+2135jtwnz7TmftDZ4hwzXaSynYJ7jsyBtCbmb3F+YbfWGIlHOPywDlwsHhNxFYwmNhAGJx6REYggFcEyFKZVeEEgnXp9UkzMKKIZY8Q5f9N13R5gaCm8QCwgxehZqx/LpgF24tFbUm9Z37Rz9ke2fUzk3HvOnM09kWnN93BHJ/M9nhaeyvuuLFC0jQIQFZIxcFtFH4d14Oh8J6p4XCi1emDfWRDtgFKAbSpMq/QCCyRwbI0TBYm2R48+n2yM9/MQSeHVAN6srKzsAICmpqZYQIabBkDNWv1Ydks9ePOWa5OLbn9665zbHr9ZeyJ99mzuue4zDnRWJUROeFJol8ivMvaNxHPxEVxQSIZBPEo9H5R3qb8DT1QuJh7R5/0cMYh3CEVI2Qozp3rwZBADCVxc44Fo6mu0d9V4WjyHSvSYo/uq9zcduBzOFRFpIhKGYZBS6qV//Md/7IZ/QccCMlKsbYScu3Z3bnu6ztD76615//VnG+betq0OWn+1o835TXeLa6qMtISjXCmUAED+RaU1QQfrTanvaJjEo9RW4wNe6/s78ESklGAWu6zCxwGcg0JTPwQWCFA7VYIzAYBAevwE0sM77rCKfLKJSLF4SCkLXX/7e/xlUndCWmtSSgnG2EsA1J133mld9K8uQiwg/WBVQ5OgKxvdvZuWm3p7Hc2tf+IvX9/Wer2W8gddHe7R7hbHkllpCE+7WmsJgPwQO3S4GOuhuH8GssbH4tFPSgXIgfPFY6DDaoAI0L6lEVakpywPs6dnCgWFpDEuRCSszg73HQ/blEwGESklHrZtw7KsAVWtl8M5CgLodi6XOyilbAUAx3HiDaVGkxXr93m0qkns3bTc/MXsF87MXvvEx04dO/Mh4YifZzrc1u7TjuVlFJdCewAUIYyPhB2QBuFfGtE1PhaP860PYFDfE9BLPACAAjeWFEDSlpg3PQchg4VnnGwuFe7rMXfuXNTV1cHzvMLiOZFFpFSretd18d73vhdz584t7CPSH/raCXGUUYZhaCLa2dbWdhYANm/ePOSJTfpWJoMhrB3Zu2m5+a71e14m4IbXNq/6UMW05Beyne4VrAcVySkGDJsJYmAAWLSxW78ZcQNhsosHIo8K5+6nBnH8ReIR+q8YNIRiSNkS82Z4eP51gm1qSM3GRUsTzjmklKiursbq1asBAHv27JnQ+2YUC2PowrvqqquwevVqpFIpSBhR150AACAASURBVCn7LSBlgAYgDcPg2Wz2+UceeaQDwxD/AGILZEisWL/PIwDb03XGW9dt/8nc2x7/3Xx3/rOu4x3tOu14PWddw8kp5ru1wnRfrft9xzYqBsJkEg+g72SBIYgHUFI8/KcEqTQSBmFWjfS3t9VBLtYY3LgPNJsovNMWQiCRSOBDH/oQrr766l531RNJPACcZ1UppbBixQqsWbOm0PY9tMz6osyytoiIIKWUWuuXAGA44h9ALCDDQlBDAp0GW/BHP/vnOf/liUX5XP5+Nyt6ulscL9vmcelpAFppnLtAL3o9xeIxAlzopIbPBzPs+eLhmxcaxAhSAUlLYHZNBioQkLFYc4uthYu5ocJ/CzeAsm27ICLRv5lIbqzi41qxYgU+/OEPI5FIFPYWuZBoXmx/ktEmuGO1XNd9jYhaAeCVV14ZFr9aLCDDCDX4K5IG1OV//Mznz+7qvFzm5fdVXsqu046XaRdMCY3AGtH+Tasu7W7va52LPg6ZERu4TBmhk9qnePjjMgBSERKmxPwZ2XNxkDGglMvpYotb+P7wrtu2baxZswZXXXVVoa36REQpheXLl+PWW29FIpHodQ76c76iz8c4VqQ45xrAjtbW1mGp/wiJBWQEoGClekfF82fnfezJ/3b2eNs7XcfbSY5E9+m8cLoElNRUWND6uhYHGcvtHxPnjnFg9OXCGuqwERdWic+TipCyNN46y4Enyd+EZgzQWsOyLDQ1NSGbzRbupsN/64to7YNSColEAmvWrMHVV1993u6C45lwsQ/dVlHLoz/1H9FzaRgGstksduzYAcuyxuz8EJEyDIM8z3v0e9/7Xhf8dT8WkLKnwd/+4a2ffH6/d5r/QUdz141uXrwpc4q6TjvCzYmgO1IfOeWlShIGzIXMmyENPE4oDpbrEq8NZlh9/mPUEokQaovBNWZOFbh0StZ3Y41BKq9SCqZpYteuXfjpT3+KXC6HwD9+UREIF9cwpTUqImFMJAw4h8/LnXCOYW0H4GdNheIRbpsbFhD25/yE5zKfz+Oxxx7DCy+8ANM0x8xaU0oZ+Xz+qNb6FQBYt27dsEX/YwEZQQIPFUEDS+7a5ixc3/TzCpdd3Xqm80+8vJtzOyXrPJ0XXk4qzhg0AKU0wkJ2aEAXChIHQ3FMQ2OYVGmcUJxxBQyL66o44woo4bo6B5H/HQrJkLQE3j63E8KvFsL5dSgjRzT91jCMgojk8/mCKPQnHtKXiER3CRwPVknU2gititDyuPXWW0uKx8XiHuH78/k8Hn30UezevbtXzGS0XJeRTB0V7Aff6DhOGwDU1tYOW15xLCAjDFGwCV3aP9fT/3hb1/+7velf8x3tS7vOZP+GlDTcTsE6zuRd6UplGAStQForDQrM5T7CJBemVLqqRm9RKd8f99DpSzwo8vpg6nL6EA+iC7qxWNDWJGkpvG1OHjJsa+L3dB61byK6gHHOsXv3bjz22GODFpFS7qzwfeUsIsXiEXVbhTEPpdSgxCOXyxUsj2iq72jGvYiIAhEJt7Ddsnnz5mx9fT0fyg6ExcQCMkpQAxSR3za+AVBL7thz7LWuIxu6unNv62zL/UsSZOXaPNZ91skrJRXnjHwXRyAkGIhLoC/xAHrfcU9UC6SUOISvFYvHQOpySohH+Fr4eslFghAmTBARpldJzLukBzqoSgf0qElIcRCdMdbLnTVQEQkXzqiIhH8XCky5iUhUPEKBiLqtEolE4RwMVjx27dp1nviM1jnQAYGIGK7rvpjJZN4AgJaWlmH90Y+bSpiJwiNNR5QGaPWm5Wbdp/e7G//98Jk7V83Y2enpn2qhL5k+xb6yq1OQlirLbWZyg5OSGiDooNHWRbJA+lo8gYkrGFEudvxR0RgG8QAuIh7+5/u+TP9+jZGGIzQOnq4K/kQDxPyHEf6KSi1ojDEcPXoU+XweCxcuhGVZhcW1r2utWESUUrAsC4sWLUImk8GxY8d6WSkXGms0KRaPsE7jqquuwpo1awpFgoOxPLLZLB5//HHs3r37PMtjNI89WCc0gPCGYGM+n39237596siRI8OqYrEFMgYQoFes3+el02D7tyy1lty1p+ut/237cyRz608f7vyQ2+O+nABLdZ/JqVyXmyUOGJxIq77axof0Z/GcyAxEPAbIoMXD/2x/odXB/iAavzPbKVgdoYiM1tpaSkTCmMjjjz+ObDY7YEskrFhPpVL44Ac/iGuuuaaXQJVBKmuvOUQr6VesWHFehflgxWPXrl0wDOO8zxtN4YzEP0hrTa7r/nDz5s1efX09xzAvArGAjCENDVBXrn3V3VIPrrfUW/P/ZMfJeR9/5lFG7kebm7s+kesSZxOKUt1nXDfb7eW5QTA4gyoSEp8RXDzHBSN8/IMWj5DQXeUzJSmxeGZX4JoMO/SOXnV6dCGNLvS7du3Ctm3bBiwiwLm2JxUVFbjllluwYsWKQvfasS6mi841tEBCt9Xq1atRUVHRqz3JUC2P6LkdbfEIvg8iIiml/HlLS0vzSH3eRF5Rxh3b03XGyrWXMrqy0QWAY9+/4RrX1TeYSf63l12Wsno8lTWS3EikuAUFCKkKd1I+sXj0fg0oD/Hw56OLkiHeOG3gW88uAAFgTEFpNur1IaVcOkopXHfddbj55puRSqWglLpoAV1x4ZzWGq7r4gc/+AF+/etfFyrZw/eMBVGhFELg7W9/Oz760Y/Ctu3C69Hj6GuMvsQjdHuVgcuu0NhNSvm+qqqqpoaGhhFJ94ubKZYRqxqaBBqA/VuWWksXJTWt+NkLAF5o/vebfnmqJbPaZPzTFUYSmTavx6rgtpXgpgwq2xGskP6TySQewIiLRygWgxYPfy6+Z9oXCoMpzJ8hMG96N463VyDcgCq4eRx1d1YYqwjvoHfv3g0AuOmmm3rdnfdnUZRSwjAMnDlzBh0dHSN+DIOls7MT7e3tmDVrVr865haLRyaTwbZt2wriEVpsYyUeUdcVAKmU+mVra+uuDRs2hIIy7AISB9HLkH9pPCMbNp9UBzbebG/8+Lswpf4nBz60susX0xIzX85khWExWmYQ8XxO9HATzDA511JBR9wk4YI08cUDGBHxKBaLIYnHubmFadkAgTGg0nbx8tEaaO2n+mrNwEbZsdyXiDQ3N8NxHMyfPx+2bfd5Zx0NpgshYBgGjh49ih/+8Ic4fPgwTNO86J39aBCNHTLG0NraipMnT2L27NmYOnVqoUliKXdb+N/he3p6evDkk0+WjXgEx0dEJBljHH4H8PWXXXbZ601NTSNifQCTY3UZ9+zacG3y2nt254mgX/n61XOmTZv2QUjcPq3Gus7jBDJYj5nkKdMk5nkSYdB2cjCM4hG1NsLzN2zicW44QEGDgZGCJwj/9+latHSkio5m9KyQc3M7587inEMpVXBn3XTTTaisrDzPEokullHx+NGPfoQjR44UxGOsAsqlji8qeK7rYtGiRfjwhz+MuXPnFo6h1PtDgejp6cETTzxRVuIRsT40Y0wppfYfOXLk6sbGRhcjmEETWyDjgG88eUw0NAB7Ny1PvWvd3tYNWw7uW3/LvF96Qp/J9siZMyqsWdmcR0rpLDeZYRjMT/3F2N7xjTxRkRhm8Qh/j/2q8+g/ROGi5M+VMSBpOXj1+BQIReBsbKwQf24XtkTmzZtXqJEoXizDhbe5ubksxSN6fMXZZ2fPnsWpU6d6WSLFabyhcJaj5REcGxGR5JxzpZTWWt/18MMP/2akPzcWkHHE5sdOeuk02PfvuyW5cO2Txx5ofOPZO1fP25/JS8fJerUzqhPTerJCapDDDTI5Z0GHjbHPvx9eisViBMQjanVE3zNkKHAv+o+MaUyrlPjNsSTyrlH0PY2+FXIhEXFdF3Pnzu0lIsA58Th27FjBbRXWkoxVNlJfFGdiAb6ItLa24tSpU5gzZ855IhKKR3d3N5588kns2rULnPOyEY+I9QEiUgAO7N+//y8PHjwoRvqzx/4bjRkU29N1xltWVFmzVj+WBYAj37mhPlFlrPWEvrF2VkV1jydcM8kVN1gC8HtsRRekcvlB959oplXU6hhG8Yi+BoxgVZ8/z6DvGQDgV4ds/HjvnMAKUVCKgbFgO+Qx+Jr6484SQhRqQI4dO4atW7fiyJEjsCyrEJQe68W1L4pFhHMO13WxcOFC3HbbbYXAutZ+37Du7u6yc1tFjwOAICJDKSWUUp/YsGHDd0bj88vrW40ZMHs3LTeXv2ORQdc15gCg+d9uvNO2jDV5T77/spkp5LVyzKRBhsEspTV0oVljUL5Whj/u8ykWD130evHz/g47FuLR+2PCRwWJh5+ZhebWFFjExTWWX01fIvLud78bN954I6qqqgAAx48fR2NjYy/xCGMM5Xx9Rd1ZWuuCiCxatAgf+chHMGvWLAAoWB7PP/98WVke5w7DD6wFsY+927dvr9u3z992e6SJXVjjnM2PnVQN33hV7E8vtf75syuMKbc++fyyQwf+Y967L6d8XiVIYJ7BGRdC5YlDG5xzrUHBZed3PdA6yOAa66MpRSnxKLY6wucDGfYi4jFsLqvShGEVBBXojBGmV+bw2okquB73YyHn3j0m302xOyu88z5y5EjBnXX27NmC5RHGPMaDeAA4b46htXH27FmcPHkSc+fOhda6EPMIM7TKoM4jnG/4o5CMMUNK2c0Yu2Pr1q2HRmsO5fvtxgyKAxsX24vfPlvQqib59Feum79k/pR/IOirq6rsK1iSgZuU5yYziMEI9uaOWCMos9TfESoQLBYPot7t2EdYPIqnAWgoDdimxg+em44XD9cEU9GBK2vUptTHPHtbIqGFsWzZMnR0dOCNN94oxDz8eZe/eEQpDqwzxuA4DpYsWYLq6mq88sor5wlpORxfICCaMaa01trzvO8++OCDnxjNOYyPbzhmwBz6Vl1i4ceb8gDw0sbfv7pmdsU/MKnfNmWqXassgmkzh5vMBMAi1YfkB3nH/sdxvngQzt/LYzDDlod4RKfjf7SCVAwZR+Ebz8xBS1cSlqEhZGitjPliVXKRZYz12ixpvIlHSKnj8zyvsA98uR2f1n63XaWUZxiGIaU8yBhbeejQodONjY3Dtt/HxRhf33LMgDm0vS6xcJUvJK//35VrUpfaf0uKLamsNKuRZLAS3GVcmwAj/4dRDvGRi4nH+LY8SkysMCWLazz7WgV+/splviuL+8ISWoblEBOJLrLRNN2JRGhxAChH8egVOJdSZrXWn9+wYcPG0Z7LxPrWY/rkwMab7SV3bXMA4Mi3b7iLV/G/gMaCiirT5BVMmzYTIGYQQOfW13O+4dH70Uw28YiiICWDYQg8/PQsHDhVBdvUkApByu/YT7NYRICxt45GijI+Rh0InMMYMz3Pa7r//vvfj2Hc67y/lNVZiRlZNED7Ni03Vqz3MzQOff/9D1qmcRvAZiWnmGRWMGUYTBMjFq6q/npB4d+P8AUzBuIRMuYLxDkrhBFw8DTHD/fUorU7AdtUEJLKwpUVM7aEriuttWcYhul5XrPneR+vqanZPpw7DfaXuJ37JILg70OiNUhvqecLP/b03S/+8D/frrT6Ya7L6+w86VCuW3ApgoTfgnj4LaJHfukaAfEAxoF4ACjsGQIIBSydI/CuhZ2wTAkZqQmZ8Fu6xPRJRDwUEXEhhKe1/sbGjRufHqs5lcMvJ2aMCDWBCPrFje9ZOvWSxNeTCXO5AjOSUwxuV3LFGJE+t6lusNaOZIFdOP4wiQdQ5m6r3oT5DEISLMPD956biZcOT0WiyJUVMznRWuvAdWU7jtP4wAMPfDSdThsNDQ0jXnVeivL69cSMGaFr+z+/serGqqrERtumJZKRTFaZpplimjHCOSEZiXV3mLOtCsP2IR5liT9XrQkgCWiGrpzC95+bjTdOV6IiIeFJAivb+ceMJEHabt6yrITrunuklB954IEHjo/lnOJ7mRgACLKvgLdWzXh69v5tSzvbc5/0XNGZ7/TQ3eJI6aoxcGENk7+muGCwrPHb8DP4ejejCnjv0lZcOiUHx2Pg4+lQYoYTHTRLTLiu2+x53pceeOCB48E2tWNGLCAxBTRAtLZRUgNU83z1zYOvNC/Mdue/KB1FXS0udZ91hRJS+/743lkqg/7E8x6LXxvMsPr8x1FqUTJ0/HOg4ffEyrkM71yQx+8u7ALnsvCeoZ/7mPGC9oHWmqSUSkr5ja9+9auP3nnnnfZo1nyUIm5lElOgIXjUabCFHz8iH2k64657e3JnZxbfNBOsuiJpLs90eVp6ShoWMcNkQZPGwWQHlaoyV8Fr4VjDkHEF+Lfy53qHlCHRGI9/DsLWMowAz2NYdFkWZ7tMHD6bQtJSEIr57yIajfS4mDEiDJwTUd62bcvzvH+rrq6+DwBt2bJlVPpdXYj4sospiQYIW+oZrfXvcE5954aKs909S6unVDTMnJm6uS0rhV3JdKLSMrlBUDL8KyoM0PfVdTHxKO5/1d9JX0Q8yjBo3vtYewuoP10FpQiMEbpzCo0v1OLV5qmoTLpwBAensS9sixkZgoA5KaVytm0nHcd5qqOj408ffvjh0xhWH+/gia+8mAuSToN9YWUdo1VNAgCOP/L+6XktrzWT5pdqZ6be0dYl3eQUDrvSsKDpPIvk/CLE/va3GgbxGMXmiP2n1PGVahDpP4b9yaQiGFzjTCfDv++pxW9PVqMqIiJjXaUeM7xorTXnnKSU+UQikXBdd2dnZ+efbdq06QDGoGCwL+JLLqZfbKkHr/9UHYVCcmLL9fPyOfd6nkj870tnJKf35KVjV3OWrDBNrQEpNYgVt0UB+iceA2Tciocuer34efCK1iDSEIpgcY2jrQZ+9MuZOHKmCpUJF64IuveO0d4hMcNLaHlIKZ1EImF7nver7u7udV/72tf21dXVGU1NTWOSsluK+HKLGRDb03XGypVAKCRHf3DD21xXrE6lEl+qmmIhL2Q+UW0aiZRhKKWhlA7c+VGLJBxtGMSjMNR4FI/o8UffU/rvtPa781qmxusnTPx472Vo6ayAbXoQKhaRiUDEbSUMw+Ba69czmcynH3rooWfWrVtnbt68eczjHlHiSy1mUOzdtNxcXrNI0tpGtW45zM/99fuug8tuu3R64k5pMEimM3alYVs2N5QElFY67IkSFsv5TDbxiL4G9O+4Q2EIREQzWFzhlaMJPLrvUnTlkzC4hJRju4thzNAIxUNrLQIROZXL5f7ioYce+o9yFA8gFpCYIXJg42J78V0HHQLwwsbF1bXT56xS2vjTmZdV/pecUoBJPXYlT5kmY0JoANBEOnBr0dD3H5nw4nHub8LzpRQAIhhMYd+bKfzkV5fB8SwYTEJpDiIVi8g4I2p5MMY4gK58Pn9nTU3N906ePMk3b94sUAZB82LiSyxmOCD9rTqbgv1HDmy8eo49fcr1mujPa2srrulxBHiC9ViVRoXJiTwhQURF8ZEhxj7GpXgMVDzPiYhUCCrSFV48lMLT+y9Ba08KFveUBmeAKpeTEHMRojEPy7Jsz/NOCiE+e/z48X9dunQpBU0SyyJoXkxcSBgzHGj6eFM+nQZr3nJtcslde47N+6OffVuo/B0njmfv62l3jiY1KjOtjs5mvAwjBs4ZKRXdS0L3MiYu/Gl6EoqH/3ehxcYZoJQG5wzXXJHHDUtPOjWJHteDxbSWrl9BUn53rDHnUUjVTSaTthDiNc/zPvXggw9+N/j3shUPILZAYkYAvQX8GOqtuWsbcwBw+F9XvY9rdiMM45MzZyaruz3pWikurQRPAgQhVKETbZ8La1QwCrUmk0k8zv2Nf8dKxDmQzSrXywk5zWbJX75O+I/XFxw2klMWZLP5DGNUEVashwVpQzmqmOEh+l0Ee6tkbdtOeZ63N5fLfW7jxo1PB9lWZS0eQCwgMSPI3k3LzeVXVHIKdkQ8uvX6tSTZzRr6j2trK4yMVDkzyZhpc1srDaUQ2X0kQrF4RFuURMWkLNbH4XdbRbK0NADinOC5ystnpJtiVNHZ7sHJyp8mLecn//rizGMn1MK/Mgxjpeu6WQCpwkixiIw5Jb6DrGVZKc/zfpHNZu996KGH9pZrwLwU8cUUM+LoLUstXHkl6MpGtw4wvvuD6+/gnG5hnP/B9BkJ5KEyhs0tw2Kmljrw3heltvblsgImpHj43bDOpT4DgGEwCE8JNy8dJlAhcgKZHrEbWv9H8xtn/t91/+Pl4wBwxx13XFFVVfVPqVTqRsdxvOBDjWCsWETGiKJzLwBo27bNbDb7VHd3951f//rXfzuWrdkHQ3whxYwah75Vl1jg9ghav088l37HpQveXrueaf1BK2Fek6wyIA1kTIvZ3GSGFMEiGohGYekt26aIFxKPkIHNuZdwCKmEq3PK0RXcU2hvz78mCT/Nn8k88tY7d/8aAPSWa5Obf+6J9Zv3eevWrautrKy8nzH2UcMwmBAiByAZuEw0gJLGXszwEz3fwdOcYRhJIYRUSm3p6em5d/PmzSfLrUiwP8QXUMyos2vDtclr7/lAnqhBv/iVq5fOmD91PQE3Tamyr9A2gZksx21mc86YlArQADEq4/08hlc8QuHgnEFKqYWLvMjLZJIIp1pyxxnp7Znu/Dd+547nngWAE5uWp2at35cLP7S+vp6HXVrvvvvutGEYf2bb9jzHcRwABhHx4HNia2SEiZ5jrbUEIGzbth3HOeq67jc3btzYAPT+zsYT8cUTM2Y0b7k2OXft7hwAHPj6+1emqvmnBfTvXTIjWesSwUhQnptkc85Ier54ECunYDkwZLdV5J9D4fA379JaSu24WWmlQOx0S+4sOPbprPfw/NubtgK+xfGF/budhoaSgVZKp9O8oaFB3HXXXWssy/q8YRjXSCkVAKG1tkJrJBaRkSGyBS2IyAVgcM6ZEOIF13X/18aNG38cuKwkxmnGXHzhxIw1tHfT8uSK9fuyAPDbb9X9oV1lfYopduWMSxLTHKaVmWAe52QRiPxmjRQJf4xlN9pi8fDrMs49L25fEvnLyLx7CQcAJbTrOYJZmhktp7PZlEkvuxn3u7P/pOlrgG9x7KzZ56xdi4vesabTaauhocG95557ZmutNxiGsYZzbkspncASiWMjw0xxrENrLQ3DsIUQjhDix0T0lw888MDx8LsZ08kOkfiCiSkLdBrs2JXX2qFFcug777s7WZW43fPkW6ZdYielScI0SRFnFnS4ABc3axzNy3lw4tF7njr4T/LzBKTyPFeDC222tuRUwuSv5nPej279o2f+fh/gNW+5Nnlwv+2tahiYnzzqHrn33nu/QEQf55zPU75L0IUvIuz8+cUMhKJzp+AHyi3GGKSUR7TW377//vu/AIxfl1Ux8ZUSU1Zs2QJef8l8k1YdyafrkPjEp67/e9s2P+y6avHUS2wwm3nEQYwzY+yEpL/iEfmLIosjOmdoLYSntXak2dMhoKEPCUduf3n70c+u3vzbs3p/vYUtLYoGKBzFhOmhd9999/uI6G8Nw1jOGKuSUmr4i51BYVVnvDYMFA2AgoC5AGAEfa26hRD7pJR/t3Hjxu3jKUW3P8QXSUxZoreAY9FyRiv2eTv/+i2zFqyY9yAYe4/JWW1iqgnDZoKZRAC4n+4auZvHSDYUHLh4hK/5qbm+cATPpRBKqaw28z0CeUe2aMJLJ090/sW1n3nhgN4ChkvO7cUyHETTRO+99957iOjPAVzOGONK+duChUH2mIERBMkRnkut9Rta669t2LDhQaD3uZ8oxAISU9ZsT9cZK7/QpIigfv0v17xjyiXVmxjoLZZt1FjVBqwEE4wT09rv3QHCCNoggxGPwt9q6EA4CEpJrbycNJxuAScvOzX0oe6TuTuv/MxzOwG/CHPF+n0jdadKdXV1vKmpSXzmM5+5zDCM/0VEa4iohogoFBIALI6LXJjA4lCALxzB/uXtWusfCyE+/9WvfvX0eEzP7S/xxREzLtBpGNQAAQCvPVx3U0W1/U8gmm0leNKqMmAnmWSMmNYIWkREXETDO5PgsX/iEQbIg3dppbVy84o7XQKeI/NMylPtXd1/deUde/zMqnSdMVRX1QCg+vp61tjYKO+99973AvhHzvkyrbVNRExrrYJjoFhIehMEysP6Dqa1VkTkSClfBvDZ+++//xdBnENhnGZY9Yf4oogZV2ypB1/b6GcfHfz2e9clK60vavAabnOemmLCSjBF0OQbJP7vdvjWvoHGPAJ3lb8XivbyimU7PS0cqbRGu5MVX7z8T595EPCTCKh0Ou5oEB6Ecc899/yRYRifJaLLlVI8cMdoPxs1FpJQOLTWFDRBlIwxobV+U0r55Q0bNnwPgMT5ud0Tkkl9McSMfzYth3nDZ97/D3aF+WlAp6wKrlNTLeKcgnKRsPp3qDGRvsSj6F3af2+h4psA6WnkOj3t5iRppXP5rPfwjr/d/tmPH0F+KDMaKZYuXWp94AMf+DDn/G+I6G3ByxzniqoBTJ5K9uhBhz0QtdYyeP5rKeWXnnjiiR+/+uqr4zoldzBMigsgZmKjAdr5pXfOWHD5jH9iJqsHOCUqDZWoMjgzqLA1xtAFJLypjIpJ0bu0/3/ECFJoZDtd5eYktNTME+qHp99441PX/M2hFqLyvzu9+eab7cWLF19vmub/MAzjWq210loHLsLJIR4hkXYkmoiY53m7pZR/X1NT8/PxXssxFCbVRRAz8QhbLALA/i1LLffUtMUzLk1uSlaY73GVEnYFZ6lqizEiSBW2jR/MZa+LHotdVoDWCpwzKKmR7XaVk1HSYmTmMt7Ojmbn02x+62tXrvXvUqPzLkN6ZQrcfvvtdk1Nzbs555/jnN8A+C664C6cMHH3FVKBy4qH14yU8mdSyi+3t7c//8gjjzg4v+3ApCIWkJhxjwboC2lQ2NKjZUtdZWsnrquoMP+5psZe0iO1k6wwjEQF58QISmqA+hsbubDlobUGNIFx/zHXI2Su2xNVJrfb2/Ov6lKFfQAABjpJREFUtbW6d9dexp67dG1Tj/9+v8luGYtHgXQ6zYLd8AAA9913X0Uul5udTCZvVUp9zLKsZUopBMF2BV9IxruYFI6FiBhjDK7rvgzg+47j/CiZTB7/yle+kom8n6HM9+wYSWIBiZkw6LS/eIXB6APffM8lTPJbjGrr/0ybak/PeiqXrDJMK8kNv1Gh6r2KEwot1ItGBop2TAxShsEZg5Qa+YwQ+W4hqlIs0drmtrhZ8VcpSz0+6782nS01t/FEICQFBa2vr7cuvfTSqmQyuRjAWgC3JRKJeUIICCE0EXlBwD0UFApiQmN4FOcomosMMqi01to0DIMMw0A+nz9KRI1EtCWTybzR0tLS3djYGLqqKJ1OU1RcJyuxgMRMOPQWcOyHpgaoveuWm7Our6nNZeSfmSnjf06rSVCPK107ybWZZKaV4IxAgUvmXAzj3FKnC2IR7ppIIChoeHmpvJzynJxglbZhtrU7Qjjif+oE/97R/d6JVQ1NQqdBuBKM+tG3qtypr6/nABBtwXHfffdVOI5TY9v2MqXUasbY75mm+TbOOQJBARE58NcaBoCF2VxRC3C4xaV47EjabWhhaK21bRgGDMOAlBKe5/1GKfUcY+xRx3Fetm27PWptlDr+yU4sIDETFr29zsDKJkkE/Wi6NrVkwZLLLUZrjIT9+VmXJVNt3R7A4HCblGFxzgziBmeMOBEjgDG/g7zSGlpCC6GUEkoKV0nhSs40WTVVJo6fynWLrPdFZfJHjx04+OaqhiN5rUF4to4PZxV5GcHS6TR79dVXdXQxXbdu3ZSampop+Xx+mtb6XbZtv1spdZ1lWVeapgnP86C1hpQSADz4LT8KwoKIuIRjXszNGBWeEiIR1mAYAEzOOYgI4Vxc193PGNvlOM7zRPRiIpFoa29v79y8eXNnOGZdXZ2xcuVKBNbGpLc4iokFJGaiQ/vTS80rG/zg9eN3LraXrpi1VBMt44z/YUWl9YHqqTY8T8GRGo6noLWWjEEQg9IKTCltEBG3TQbbYDANQlu7i1zG/Skp/Jsi/covf7L9P9c2wg+Qb1pu0shVkZcV6XSanTx5kre3t6viO/PPfe5zNY7jTCeiGQCWMcaWAbhca72QiC6vqKhgACClhFIKUsqCtQB/sZZEFAayddHGTBQ8Mvgpxiy0ajjnYIyBc78jSyaTUVrrN4joEIA3lFIvA3hZa33Wtu3WL3/5y+3RedfX1/OamhpWW1srYzfVhYkFJGZSkE6D/fH0m80ld21zwtdOfOf35lEitTCXcecp4lcwE8s4Y+8AaIZtsYqqJEd3TsL1ZA+AM0LIV5RgLzPI35pJq9nJ5A4t/rMdzeF4BzYuthffddAdDwHykSBceG3bZtOmTfOKF99PfvKTNaZpVnHOq7TW1ZzzqVrrOQAWEtECAHMBTAMwRWs9lTFWYRgGOOfgnMMwDACAEAJSSkgpIYSAUipDRB0AOgG0AWgmosMADgkhjgHoIKIuKWW353ndX/va13oJRjqdZm1tbabjOKqUEMb0TSwgMZMKDdDBx2+2FiezglY1FRaKjTcvtv+gfuqlZmXVpabBkwBLMihLCeYCKgelspnunpYXn+ppWdt4rmBMb68zDv46xRfftW3SCkdfBDEDnkql2IIFC9y+7uZvv/32REVFxVTDMKqIKGkYhu15nm0Yhi2lNLhvSjDGGAeAoFeXklJKzrkQQjimaTpCCEdrnRNCdF9yySUdDQ0NJQs10+k0O3z4sJXNZhUAGQvG4IkFJGbSorfXGYcPw1hw9aWKrmzsXzGYBvSr9dbhlha24FmIUexbNe5Jp9MMAHv11VdZICo4efKkHKn25uvWrTNra2v54cOHkc1m1dKlSxUAFbulho9YQGJifGh7GnzO9MXcqJpNRoVDvN0jWWNqkbG16D6uj7UelKsaMG63Hy1jqL6+ntXU1LD29naaOXMmdXV10bRp0wgAMplMyXWqoqJCA0BbW5uurq7Wp06d0jU1NTpwQ03oJoYxMTExMTExMTExMTExMTExMTExMTExMTExMTExMTExMTExMTExMTExMTExMTExMTExMTExMTExMTExMTExMTExMTExMTExMTExMTExMTExMTExMTExMTGjxf8Hi0P+ukqe5IsAAAAASUVORK5CYII=;" vertex="1" parent="wAJgxxfG1Gylnoa3M8R5-40">
          <mxGeometry x="401" width="40" height="40" as="geometry" />
        </mxCell>
        <mxCell id="wAJgxxfG1Gylnoa3M8R5-41" value="Admin" style="rounded=0;whiteSpace=wrap;html=1;strokeColor=#6B6B6B;strokeWidth=1;fillColor=#FFFFFF;" vertex="1" parent="1">
          <mxGeometry x="250" y="486" width="80" height="30" as="geometry" />
        </mxCell>
        <mxCell id="wAJgxxfG1Gylnoa3M8R5-42" value="Truck Owner" style="rounded=0;whiteSpace=wrap;html=1;strokeColor=#6B6B6B;strokeWidth=1;fillColor=#FFFFFF;" vertex="1" parent="1">
          <mxGeometry x="250" y="548" width="80" height="30" as="geometry" />
        </mxCell>
        <mxCell id="wAJgxxfG1Gylnoa3M8R5-43" value="Customer" style="rounded=0;whiteSpace=wrap;html=1;strokeColor=#6B6B6B;strokeWidth=1;fillColor=#FFFFFF;" vertex="1" parent="1">
          <mxGeometry x="250" y="610" width="80" height="30" as="geometry" />
        </mxCell>
      </root>
    </mxGraphModel>
  </diagram>
</mxfile>
